<svg height="190px" version="1.1" id="Layer_1" xmlns="http://www.w3.org/2000/svg" xmlns:xlink="http://www.w3.org/1999/xlink" x="0px" y="0px" viewBox="0 0 480 530.3" enable-background="new 0 0 480 530.3" xml:space="preserve">
<g id="DM_White">
	<g>
		<defs>
			<rect id="SVGID_1_" width="480" height="530.3"></rect>
		</defs>
		<clipPath id="SVGID_2_">
			<use xlink:href="#SVGID_1_" overflow="visible"></use>
		</clipPath>
		<g clip-path="url(#SVGID_2_)">
			<defs>
				<rect id="SVGID_3_" width="480" height="530.3"></rect>
			</defs>
			<clipPath id="SVGID_4_">
				<use xlink:href="#SVGID_3_" overflow="visible"></use>
			</clipPath>
			<path clip-path="url(#SVGID_4_)" fill="#FFFFFF" d="M0,494.8h479.2v4.9H0V494.8z M479.2,408.6H0v4.9h479.2V408.6z M30.4,485.1
				H3.8c0.2,0.7,0.4,1.1,0.4,1.1h27c0.3-0.3,3.3-3.9,9.1-10.8v0c-0.3-0.4-0.5-0.6-0.5-0.6c-0.1-0.1-0.2-0.3-0.3-0.4
				C33.6,481.3,30.6,484.8,30.4,485.1 M40.3,435.4c-1.3,1.5-2,2.9-2.1,4.2v31.5c0,0.8,0.3,1.7,1,2.8c-0.1-0.1-0.2-0.2-0.2-0.2
				c-0.1-0.1-0.2-0.3-0.3-0.4c-5.8,6.9-8.8,10.5-9.1,10.8h-27c-0.1,0-0.3-0.8-0.8-2.3c-1-2.9-1.5-4.5-1.6-4.9c1.2-1.4,2-2.8,2.3-4
				c0.2-0.7,0.3-1.3,0.3-1.8v-35.7c0-1.6-0.6-3.3-1.8-5c-0.4-0.5-0.7-0.8-0.7-0.9c0.1-0.3,0.8-2.7,2.3-7.1l0,0h27
				c0.1,0.1,3.2,3.8,9.1,10.8v0c-1.3,1.5-2,2.9-2.1,4.2v31.5c0,1,0.5,2.2,1.6,3.7c0,0,0.1,0.1,0.2,0.2c-0.7-1.1-1-2.1-1-2.8v-31.5
				c0.1-1.2,0.8-2.6,2.1-4.1C39.7,434.7,40,435,40.3,435.4L40.3,435.4z M12.8,474.1h0.8v-40.7H24c0,0.1,0.9,1.3,2.6,3.4v-0.1
				c-2.2-2.8-3.4-4.2-3.4-4.3H12.8V474.1z M26.6,469.8v-32.9c-1.2-1.5-1.8-2.3-1.8-2.4H14.3v39.6h8.9
				C23.3,474,24.4,472.5,26.6,469.8 M76.6,427.2c-0.9-1.9-1.5-2.9-1.6-3h-0.1c0.2,0.5,0.6,1.1,0.9,1.9c0.1,0.2,1.9,3.6,5.3,10.1
				c-3.8,2.4-5.7,3.6-6,3.6c-1-1.4-2-2.6-3.2-3.9c-0.6-0.5-1.2-1-1.9-1.5c-1.7-0.9-3.4-1.4-5-1.4h-7.8v5.2c0,2.3,0,5.6,0,9.8h-0.8
				c0-4.7,0-8.3,0-10.9v-5.2h7.8c1.6,0,3.2,0.5,4.9,1.4c0.7,0.5,1.3,1,1.9,1.5c1.2,1.2,2.3,2.5,3.2,3.9c0.2-0.1,2.2-1.3,6-3.6
				c-3.4-6.5-5.1-9.9-5.3-10.1c-0.9-1.9-1.5-2.9-1.6-3H55.3c-1.9,0-4.9,0-9.1,0l-2.3,7.2c0,0.1,0,0.1,0.1,0.2
				c1.6,1.9,2.4,3.9,2.4,6.1v35.5c0,0.8-0.2,1.8-0.6,2.8c-0.3,1-1,2.1-2,3.2c0.8,2.5,1.4,4.4,1.8,5.6c0.3,1.1,0.5,1.6,0.6,1.6H60
				c3.1,0,7.6,0,13.5,0l6.8-13.1c0-0.1-0.2-0.2-0.4-0.3c-2.7-1.7-4.5-2.8-5.5-3.4l-1.2,1.5c-0.7,1-1.7,2.1-3.2,3.3
				c-1.9,1.3-3.8,2-5.6,2H58c0-4.4,0-8,0-10.6v-3.1h11.1l0,0c-1.1-4.9-1.6-7.3-1.7-7.3c-0.3-1.8-0.6-2.7-0.7-2.7h-0.5
				c0.1,0.4,0.2,0.9,0.3,1.6c0,0,0.6,2.4,1.6,7.3l0,0H57.3v3.1c0,2.8,0,6.8,0,11.8h-0.8c0-5.5,0-9.8,0-12.9v-3.1h11.1l0,0
				c-1.1-4.9-1.6-7.3-1.6-7.3c-0.3-1.8-0.6-2.7-0.7-2.7h-7.3c0-3.6,0-6.6,0-8.7v-5.2h7.8c1.6,0,3.2,0.5,4.9,1.4
				c0.7,0.5,1.3,1,1.9,1.5c1.2,1.2,2.3,2.5,3.2,3.9c0.2-0.1,2.2-1.3,6-3.6C78.5,430.7,76.7,427.4,76.6,427.2 M80.9,472.5l-6.6,12.6
				c-5.9,0-10.4,0-13.5,0H47.4c0.2,0.7,0.4,1.1,0.4,1.1h13.7c3.1,0,7.6,0,13.5,0l6.8-13.1c0-0.1-0.1-0.2-0.4-0.3
				C81.2,472.7,81.1,472.6,80.9,472.5 M115.5,486.3c0.4-0.6,2.6-4.9,6.8-13.1c0,0-0.1-0.1-0.4-0.3c-0.2-0.1-0.4-0.3-0.7-0.4
				c-4.1,7.9-6.3,12.1-6.6,12.7h-27c0.2,0.7,0.4,1.1,0.4,1.1H115.5z M145.4,435.7c1,0.3,2,1.1,3.3,2.2c1.2,1.2,2.2,2.4,3,3.7
				c0.1,0,2.1-1.2,5.9-3.6c-4.3-8.3-6.5-12.6-6.7-12.9h-0.2c1,1.8,3,5.7,6.1,11.8c-3.8,2.4-5.8,3.6-5.9,3.6c-0.8-1.3-1.8-2.5-3-3.6
				c-1.2-1.2-2.3-1.9-3.3-2.2c-1.3-0.5-2.4-0.8-3.6-0.8h-3.4v37.9c0,1.5,0.4,3,1.3,4.4c-1.4-1.8-2.1-3.6-2.1-5.5v-37.9h3.4
				c1.2,0,2.4,0.3,3.6,0.8c1,0.3,2,1.1,3.3,2.2c1.2,1.2,2.2,2.4,3,3.6c0.1,0,2.1-1.2,5.9-3.6c-4.3-8.3-6.5-12.7-6.7-12.9h-34.9
				c-0.2,0.3-2.4,4.6-6.7,12.9c0,0,0.1,0.1,0.3,0.3c2.8,1.6,4.6,2.7,5.5,3.3h0.1c0.9-1.3,1.9-2.6,3.3-4c2.1-1.8,4.3-2.7,6.6-2.7h3.4
				v1.1h-2.7c-2.3,0-4.5,0.9-6.6,2.7c-1.3,1.3-2.4,2.6-3.3,3.9h-0.1c-0.8-0.5-2.4-1.5-4.8-2.9c-0.1,0.1-0.1,0.3-0.2,0.4
				c0,0,0.1,0.1,0.3,0.4c2.8,1.6,4.6,2.7,5.5,3.3h0.1c0.9-1.3,2-2.6,3.3-4c2.1-1.8,4.3-2.7,6.6-2.7h1.9v35.7c0,2.2-0.8,4.2-2.5,6
				c0.6,1.9,1,3.2,1.2,3.7c0.7,2.5,1.1,3.7,1.2,3.7h10.1l0,0c0.1-0.2,0.9-2.7,2.4-7.3c0.1,0.2,0.2,0.4,0.4,0.6
				c-0.9-1.4-1.3-2.9-1.3-4.5v-37.9h3.4C143,434.9,144.2,435.2,145.4,435.7 M137.7,485.1h-9.8c0.2,0.7,0.4,1.1,0.4,1.1h10.1l0,0
				c0.1-0.2,0.9-2.7,2.4-7.3c-0.3-0.3-0.6-0.7-0.8-1C138.6,482.4,137.8,484.9,137.7,485.1L137.7,485.1z M192.9,486.3
				c0.1-0.1,0.7-2.7,1.8-7.7c0-0.1-0.2-0.2-0.6-0.6c-0.1-0.1-0.2-0.2-0.2-0.3c-1.1,4.9-1.7,7.4-1.7,7.4h-8.9
				c0.3,0.7,0.5,1.1,0.5,1.1H192.9z M274.7,431.7c-1.7,1.9-2.5,3.9-2.5,6.1v35.8c0,1.1,0.4,2.3,1.2,3.8c-0.1-0.1-0.2-0.2-0.3-0.3
				l-2.2,7l-0.1,0h-10.3c-0.1,0-0.3-0.5-0.6-1.6c-0.2-0.4-0.8-2.3-1.8-5.6c1.1-1.2,1.8-2.4,2.1-3.5c0.3-0.6,0.5-2.2,0.5-4.7v-12.3
				l-5.9,15.9c-0.3,1-0.4,1.9-0.4,2.8v0.1c0,1.7,0.4,3,1.3,3.9v0c-1.7,4.4-2.5,6.7-2.7,7h-11.3c-0.1,0-0.2-0.4-0.5-1.1h11
				c0.1-0.3,1-2.6,2.7-7v0c-0.9-1-1.3-2.3-1.3-3.9V474c0-0.9,0.1-1.9,0.4-2.8l6.7-18v-3.1h0l-7.4,20c-0.3,1-0.4,1.9-0.4,2.8v0.1
				c0,1.7,0.4,3,1.3,3.9v0.1c-1.6,4.4-2.5,6.7-2.7,7h-11.3c-0.1,0-0.3-0.5-0.6-1.5c-1.1-3-1.8-4.8-2-5.6c0.9-1,1.3-2.3,1.3-4
				c0-1.5-0.5-3.5-1.6-5.9c-2.2-5.8-3.7-10.1-4.8-13v15.9c0,3.1,0.1,4.8,0.4,5.1c0.1,0.6,0.4,1.4,0.9,2.2c-0.1-0.1-0.2-0.3-0.3-0.4
				l-2.3,7l0,0h-10.3c-0.1,0-0.4-0.8-0.9-2.6c-0.8-2.3-1.3-3.9-1.5-4.6c1.1-1.1,1.9-2.6,2.3-4.5c0.1-0.5,0.2-0.9,0.2-1.1v-35.8
				c0-2.1-0.9-4.1-2.6-6.1v0l2.3-7.1h10.4c0.1,0,0.4,0.7,0.9,2.2c0.2,0.4,4.7,12.4,13.6,36l0.1,0c0,0,0.1-0.1,0.1-0.3
				c-8.6-22.6-12.9-34.2-13.1-34.5c-0.2-0.4-0.3-0.8-0.4-1.1h0.3c0.1,0,0.4,0.7,0.9,2.2c0.2,0.4,4.3,11.4,12.5,32.9
				c1.1-3,5.6-14.8,13.4-35.3c0.5-1.4,0.8-2,0.9-2h10.4c0.1,0,0.8,2.4,2.3,7.2c-1.7,1.9-2.5,3.9-2.5,6.1v35.8c0,1.1,0.4,2.5,1.3,4.1
				c0.2,0.3,0.4,0.6,0.6,0.8c-0.8-1.5-1.2-2.8-1.2-3.8v-35.8c0-2.1,0.8-4.2,2.5-6.1c-0.9-2.9-1.5-4.9-1.9-6h0.4
				C272.4,424.5,273.2,426.9,274.7,431.7 M231.7,468.9V452c-0.4-1.1-0.7-1.8-0.7-1.9h0v17.8c0,3.1,0.1,4.8,0.4,5.1
				c0.2,0.9,0.7,2,1.7,3.2c-0.5-0.8-0.8-1.5-0.9-2.1C231.9,473.8,231.7,472.1,231.7,468.9 M232,485.1h-10c0.2,0.7,0.4,1.1,0.4,1.1
				h10.3l0,0l2.3-7.1c-0.3-0.4-0.6-0.7-0.8-1L232,485.1L232,485.1z M271.5,485.1h-9.9c0.2,0.7,0.4,1.1,0.4,1.1h10.3l0.1,0l2.3-7.1v0
				c-0.2-0.3-0.5-0.6-0.8-1L271.5,485.1L271.5,485.1z M319.4,486.3c0.1-0.1,0.6-2.7,1.8-7.7c0-0.1-0.2-0.2-0.6-0.6
				c-0.1-0.1-0.2-0.2-0.2-0.3c-1.1,4.9-1.7,7.4-1.7,7.4h-8.9c0.3,0.7,0.5,1.1,0.5,1.1H319.4z M362.7,447.1v1.4
				c0,0.8,0.1,1.4,0.3,1.9c-0.2-0.2-0.3-0.3-0.5-0.6c-6.3,5.9-9.5,8.9-9.5,8.9c2.9,7.6,4.7,12,5.2,13.3c0.5,1,1,1.8,1.6,2.5
				c-0.3-0.5-0.6-0.9-0.9-1.4c-0.5-1.3-2.3-5.8-5.2-13.3c0,0,3.2-3,9.5-8.9c0.2,0.3,0.4,0.6,0.8,0.8c0.1,0.1,0.2,0.2,0.2,0.2
				c-6.4,6-9.6,9-9.6,9.1c2.9,7.6,4.7,12,5.2,13.3c0.1,0.2,0.2,0.4,0.3,0.6c0.7,0.8,1.6,1.5,2.5,2c-0.5,4.6-0.8,7-0.8,7.2h-10.1
				c-0.6-0.9-1.6-2.7-3.1-5.5c-0.2-0.3-0.3-0.5-0.3-0.7c0.3-0.6,0.5-1.2,0.5-1.7v-0.3c0-0.8-0.7-2.8-2-5.9l-3.7-9.4h-4.3v12.8
				c0,1.1,0.3,2.3,1,3.6c0,0,0,0,0.1,0.1l0,0c0.1,0.1,0.1,0.3,0.2,0.4c-0.1-0.1-0.2-0.2-0.2-0.3l-2.3,7h-10.4c-0.1,0-0.4-1-1-2.9
				c-0.8-2.3-1.2-3.7-1.3-4.3c1.7-1.9,2.5-3.9,2.5-6.1v-35.1c0-2.1-0.8-4.2-2.5-6.1c0-0.1,0.8-2.5,2.3-7.2l0,0h27.1
				c6,4.6,9,7,9.1,7.1c-1.4,1.7-2.2,3.3-2.2,4.8c-0.1,4.9-0.1,8.4-0.1,10.5v1.4c0,1.4,0.4,2.4,1.1,3c-0.2-0.5-0.3-1.1-0.3-1.9v-1.4
				c0-2.2,0-5.7,0.1-10.6c0-1.4,0.7-2.9,1.9-4.5c0.7,0.5,1,0.8,1,0.8c-1.4,1.7-2.2,3.3-2.2,4.8C362.7,441.4,362.7,444.9,362.7,447.1
				 M337.3,448.2h0.8v-14.8h10.8c0.8,0.8,1.6,1.6,2.3,2.3v-0.3c-1-1-2-2.1-3.1-3.1h-10.8V448.2z M342.7,459.3l-0.4-1.1h-5V471
				c0,1.4,0.4,2.8,1.3,4.4c0.2,0.2,0.4,0.5,0.6,0.7c-0.8-1.4-1.1-2.8-1.1-4v-12.8H342.7z M351.2,445.2V436c-0.5-0.5-1-1-1.5-1.5
				h-10.8v13.7h9.3C349.3,447,350.4,446,351.2,445.2 M328.2,485.1c0.2,0.7,0.4,1.1,0.4,1.1H339l2.3-7.1c-0.3-0.3-0.6-0.7-0.8-1
				l-2.3,7H328.2z M352.5,485.1c0.3,0.5,0.5,0.8,0.7,1.1h10.1c0-0.2,0.3-2.6,0.8-7.2c-0.3-0.2-0.6-0.3-0.8-0.5
				c-0.5,4.2-0.7,6.4-0.8,6.6H352.5z M385,427.9c-0.8-2.6-1.2-3.9-1.3-3.9h-0.3c0.2,0.6,0.5,1.6,0.9,2.8c0.5,1.6,0.9,2.7,1.1,3.3
				c-1,1-1.6,2.1-2,3.2c-0.4,1-0.6,2-0.6,2.8v35.6c0,1.5,0.4,3,1.3,4.4c-1.3-1.7-2-3.6-2-5.5v-35.6c0-0.8,0.2-1.8,0.6-2.8
				c0.4-1.1,1-2.2,2-3.2c-0.2-0.6-0.5-1.7-1.1-3.3c-0.8-2.6-1.2-3.9-1.3-3.9h-10.4c-1.5,4.7-2.3,7.1-2.3,7.2
				c0.2,0.2,0.5,0.6,0.9,1.1c1.1,1.7,1.6,3.2,1.6,4.6v36.5c0,0.7-0.2,1.5-0.6,2.6c-0.4,1-1,2.1-2,3.1c0.1,0.6,0.6,2.1,1.5,4.6
				c0.5,1.7,0.8,2.6,0.9,2.6h10.3l0.1,0c1.5-4.6,2.2-6.9,2.3-7.1c0.1,0.2,0.2,0.3,0.3,0.5c-0.9-1.4-1.3-3-1.3-4.5v-35.6
				c0-0.8,0.2-1.8,0.6-2.8c0.4-1.1,1-2.2,2-3.2C385.9,430.6,385.5,429.5,385,427.9 M382.9,485.1h-10c0.2,0.7,0.4,1.1,0.5,1.1h10.3
				l0.1,0c1.5-4.7,2.3-7.1,2.3-7.1v0c-0.3-0.3-0.6-0.7-0.8-1C385.2,478.4,384.4,480.8,382.9,485.1L382.9,485.1z M433.6,431.3
				c-1.2,1.4-1.9,2.7-2.2,3.9c-0.2,0.8-0.3,1.3-0.3,1.7v36.9c0,0.8,0.4,1.9,1.2,3.4c-0.1-0.1-0.2-0.2-0.3-0.4l-2.3,7.1h-11.2
				c-0.1,0-0.7-1.5-1.8-4.6c-2-5.1-5.7-14.7-11.1-28.8v19.6c0,2.8,0.2,4.6,0.6,5.4c0.2,0.5,0.4,1,0.8,1.6c-0.1-0.2-0.2-0.3-0.3-0.4
				l-2.4,7.3h-10.5c-0.1,0-0.5-1.2-1.2-3.5c-0.8-2.4-1.2-3.7-1.2-3.8c1.4-1.6,2.2-3.2,2.4-4.9c0.2-1.5,0.3-2.9,0.3-4v-32.5
				c0-2.2-0.8-4.2-2.5-6.1c-0.1-0.1-0.1-0.1-0.1-0.2l2.3-7.2h11.3c0.1,0.1,0.7,1.7,1.9,4.9c8.3,21.5,12.5,32.4,12.5,32.5h0v-0.8
				c-1.5-4-5.5-14.2-11.8-30.6c-0.6-1.7-1.1-3-1.4-3.8h0.3c0.1,0.1,0.7,1.7,1.9,4.9c5.5,14.1,9.1,23.6,11,28.6v-23
				c0-1.2-0.5-2.5-1.4-4.1c-0.3-0.6-0.7-1-1.1-1.4l2.3-7.2h10.3c0.1,0,0.2,0.4,0.4,1.2c1.3,3.9,1.9,6,1.9,6.1
				c-1.2,1.4-2,2.7-2.2,3.9c-0.2,0.8-0.3,1.3-0.3,1.7v36.9c0,0.8,0.4,2,1.3,3.6c0.3,0.4,0.5,0.7,0.7,0.9c-0.8-1.5-1.2-2.6-1.2-3.4
				v-36.9c0-0.4,0.1-1,0.3-1.7c0.3-1.2,1-2.5,2.2-3.9c0-0.1-0.6-2.2-1.9-6.1c0,0,0,0,0-0.1h0.4c0.1,0,0.2,0.4,0.4,1.2
				C432.9,429.2,433.6,431.2,433.6,431.3 M404.7,469v-20.5c-0.2-0.6-0.5-1.2-0.7-1.9h0v21.3c0,2.8,0.2,4.6,0.6,5.4
				c0.2,0.8,0.8,1.7,1.7,2.8c-0.4-0.6-0.7-1.2-0.9-1.7C404.9,473.6,404.7,471.8,404.7,469 M419.5,485.1c0.3,0.7,0.4,1.1,0.5,1.1
				h11.2l2.3-7.2c-0.2-0.2-0.5-0.6-0.8-1l-2.3,7.1H419.5z M394.8,485.1c0.2,0.7,0.4,1.1,0.4,1.1h10.5l2.4-7.4
				c-0.3-0.4-0.6-0.7-0.8-1l-2.4,7.3H394.8z M479.4,478c-0.1-0.1-0.2-0.2-0.2-0.3c-1.1,4.9-1.7,7.4-1.7,7.4h-8.9
				c0.3,0.7,0.5,1.1,0.5,1.1h9.2c0.1-0.1,0.7-2.7,1.8-7.7C480,478.5,479.8,478.3,479.4,478 M84.3,476.8c0.5,1.9,0.9,3,1.1,3.5
				c0.8,2.4,1.2,3.7,1.3,3.7H114c0.3-0.6,2.6-4.9,6.8-13.1c0,0-0.1-0.1-0.3-0.3c-2.8-1.7-4.7-2.8-5.5-3.4h-0.1c-0.9,1.3-2,2.7-3.3,4
				c-2.1,1.9-4.4,2.8-6.7,2.8h-6.4v-33.5c0-1.4,0-2.2,0-2.3c0-2.6,0.8-4.8,2.6-6.6c-0.9-2.9-1.5-4.5-1.6-4.9
				c-0.5-1.7-0.8-2.6-0.9-2.6h-0.4c0.1,0.4,0.3,0.9,0.4,1.5c0.1,0.4,0.7,2,1.6,4.9c-1.7,1.8-2.6,4-2.6,6.6c0,0.1,0,0.9,0,2.3V474
				h-0.8v-35.7c0-1.4,0-2.2,0-2.3c0-2.6,0.8-4.8,2.6-6.6c-0.9-2.9-1.5-4.5-1.6-4.9c-0.5-1.7-0.8-2.6-0.9-2.6H86.6l-2.4,7.4v0.1
				c0.6,0.7,1.1,1.4,1.5,2.2v0l0,0c0.7,1.4,1.1,3,1.1,4.8v34.4C86.9,473,86,475,84.3,476.8 M180,473.3c0-0.7-0.2-1.5-0.4-2.4h-1.3
				c-2.5,0-6.2,0-10.9,0c-0.5,2.8-0.8,4.3-0.8,4.4v0.1c0,1.2,0.3,2.2,1,3c-2.1,5.3-3.1,7.9-3.2,7.9h-9.2c0,0-0.1-0.4-0.3-1.1h8.7
				c0.1,0,1.1-2.7,3.2-7.9c-0.7-0.8-1-1.8-1-3v-0.1c0-0.1,0.3-1.5,0.8-4.4c4.7,0,8.4,0,10.9,0h1.8c0,0,0,0,0,0l-0.1-1.1h-2.5
				c-2.5,0-6.2,0-10.9,0c-0.6,2.8-0.8,4.3-0.8,4.4v0.1c0,1.2,0.3,2.2,1,3c-2.1,5.3-3.1,7.9-3.2,7.9h-9.2c-0.1,0-0.3-1.1-0.8-3.4
				c-0.2-0.8-0.6-2.3-1-4.4c0.9-0.8,1.5-1.5,1.7-2c0.6-0.9,1.1-2.1,1.5-3.4c0.2-0.6,2.3-11.2,6.4-31.9c0.5-2.5,0.8-4.3,0.8-5.5
				c0-1.6-0.5-3.2-1.3-4.8v0c2.5-4.3,3.7-6.5,3.9-6.7h15.4c0.1,0,0.6,0.9,1.5,2.6c0.1,0.1,0.8,1.4,2.2,4c-1,1.7-1.4,3.3-1.4,4.9
				c0,0.6,0.3,2.2,0.9,4.8c4.1,20.6,6.2,31.4,6.5,32.4c0.5,1.8,1.3,3.4,2.4,4.7c-0.7-1.1-1.3-2.3-1.7-3.6c-0.3-1-2.4-11.8-6.5-32.4
				c-0.6-2.6-0.9-4.2-0.9-4.8c0-1.6,0.5-3.2,1.4-4.9c-1.4-2.5-2.1-3.8-2.2-4c-0.3-0.6-0.6-1.1-0.8-1.5h0.1c0.1,0,0.6,0.9,1.5,2.7
				c0.1,0.1,0.8,1.4,2.2,3.9c-1,1.6-1.4,3.3-1.4,4.9c0,0.6,0.3,2.2,0.9,4.8c4.1,20.6,6.2,31.4,6.5,32.4c0.3,1,0.7,1.9,1.2,2.8
				c0,0,0,0,0,0c0.4,0.3,0.6,0.5,0.6,0.6c-1.1,5.1-1.7,7.6-1.8,7.7h-9.2c-0.1-0.1-0.8-1.7-2-4.9c-0.8-1.9-1.2-2.9-1.2-3
				C179.7,475.3,180,474.4,180,473.3 M167.6,459.8h1c2.4-12,3.9-19.3,4.4-22.1c-0.2-0.8-0.3-1.5-0.5-2.4h0
				C172.5,435.4,170.8,443.6,167.6,459.8 M177.4,459.8c-0.4-1.8-1.7-8.4-3.9-19.6c-0.7,3.4-2,9.9-3.9,19.6H177.4z M306.4,473.3
				c0-0.7-0.2-1.5-0.4-2.4h-1.4c-2.5,0-6.2,0-10.9,0c-0.5,2.8-0.8,4.3-0.8,4.4v0.1c0,1.2,0.3,2.2,1,3c-2.1,5.3-3.1,7.9-3.2,7.9h-9.2
				c0,0-0.1-0.4-0.3-1.1h8.7c0.1,0,1.1-2.7,3.2-7.9c-0.7-0.8-1-1.8-1-3v-0.1c0-0.1,0.3-1.5,0.8-4.4c4.7,0,8.3,0,10.9,0h1.8
				c0,0,0,0,0,0l-0.1-1.1h-2.5c-2.6,0-6.2,0-10.9,0c-0.6,2.8-0.8,4.3-0.8,4.4v0.1c0,1.2,0.3,2.2,1,3c-2.1,5.3-3.1,7.9-3.2,7.9h-9.2
				c-0.1,0-0.3-1.1-0.8-3.4c-0.2-0.8-0.6-2.3-1-4.4c0.9-0.8,1.5-1.5,1.7-2c0.6-0.9,1.1-2.1,1.5-3.4c0.2-0.6,2.3-11.2,6.4-31.9
				c0.5-2.5,0.8-4.3,0.8-5.5c0-1.6-0.4-3.2-1.3-4.8v0c2.5-4.3,3.7-6.5,3.9-6.7h15.4c0.1,0,0.6,0.9,1.5,2.6c0.1,0.1,0.8,1.4,2.2,4
				c-1,1.7-1.4,3.3-1.4,4.9c0,0.6,0.3,2.2,0.9,4.8c4.1,20.6,6.3,31.4,6.5,32.4c0.5,1.8,1.3,3.4,2.4,4.7c-0.7-1.1-1.3-2.3-1.7-3.6
				c-0.3-1-2.4-11.8-6.5-32.4c-0.6-2.6-0.9-4.2-0.9-4.8c0-1.6,0.5-3.2,1.4-4.9c-1.4-2.5-2.1-3.8-2.2-4c-0.3-0.6-0.6-1.1-0.8-1.5h0.1
				c0.1,0,0.6,0.9,1.5,2.7c0.1,0.1,0.8,1.4,2.2,3.9c-1,1.6-1.4,3.3-1.4,4.9c0,0.6,0.3,2.2,0.9,4.8c4.1,20.6,6.2,31.4,6.5,32.4
				c0.3,1,0.7,1.9,1.1,2.8c0,0,0,0,0,0c0.4,0.3,0.6,0.5,0.6,0.6c-1.1,5.1-1.7,7.6-1.8,7.7h-9.2c-0.1-0.1-0.8-1.7-2-4.9
				c-0.8-1.9-1.2-2.9-1.2-3C306.1,475.3,306.4,474.4,306.4,473.3 M294,459.8h1c2.4-12,3.9-19.3,4.4-22.1c-0.2-0.8-0.3-1.5-0.5-2.4h0
				C298.9,435.4,297.3,443.6,294,459.8 M303.8,459.8c-0.4-1.8-1.7-8.4-3.9-19.6c-0.7,3.4-2,9.9-3.9,19.6H303.8z M465.3,473.3
				c0-0.7-0.2-1.5-0.4-2.4h-1.4c-2.5,0-6.2,0-10.9,0c-0.6,2.8-0.8,4.3-0.8,4.4v0.1c0,1.2,0.3,2.2,1,3c-2.1,5.3-3.1,7.9-3.2,7.9h-9.2
				c0,0-0.1-0.4-0.3-1.1h8.7c0.1,0,1.1-2.7,3.2-7.9c-0.7-0.8-1-1.8-1-3v-0.1c0-0.1,0.3-1.5,0.8-4.4c4.7,0,8.4,0,10.9,0h1.8
				c0,0,0,0,0,0l-0.1-1.1H462c-2.5,0-6.2,0-10.9,0c-0.5,2.8-0.8,4.3-0.8,4.4v0.1c0,1.2,0.3,2.2,1,3c-2.1,5.3-3.1,7.9-3.2,7.9h-9.2
				c-0.1,0-0.3-1.1-0.8-3.4c-0.2-0.8-0.6-2.3-1-4.4c0.9-0.8,1.5-1.5,1.7-2c0.6-0.9,1.1-2.1,1.5-3.4c0.2-0.6,2.3-11.2,6.4-31.9
				c0.5-2.5,0.8-4.3,0.8-5.5c0-1.6-0.5-3.2-1.3-4.8v0c2.5-4.3,3.7-6.5,3.9-6.7h15.4c0.1,0,0.6,0.9,1.5,2.6c0.1,0.1,0.8,1.4,2.2,4
				c-1,1.7-1.4,3.3-1.4,4.9c0,0.6,0.3,2.2,0.9,4.8c4.1,20.6,6.3,31.4,6.5,32.4c0.5,1.8,1.3,3.4,2.4,4.7c-0.7-1.1-1.3-2.3-1.7-3.6
				c-0.3-1-2.4-11.8-6.5-32.4c-0.6-2.6-0.9-4.2-0.9-4.8c0-1.6,0.5-3.2,1.4-4.9c-1.4-2.5-2.1-3.8-2.2-4c-0.3-0.6-0.6-1.1-0.8-1.5h0.1
				c0.1,0,0.6,0.9,1.5,2.7c0.1,0.1,0.8,1.4,2.2,3.9c-1,1.6-1.4,3.3-1.4,4.9c0,0.6,0.3,2.2,0.9,4.8c4.1,20.6,6.3,31.4,6.5,32.4
				c0.3,1,0.7,1.9,1.1,2.8c0,0,0,0,0,0c0.4,0.3,0.6,0.5,0.6,0.6c-1.1,5.1-1.7,7.6-1.8,7.7h-9.2c-0.1-0.1-0.8-1.7-2-4.9
				c-0.8-1.9-1.2-2.9-1.2-3C465,475.3,465.3,474.4,465.3,473.3 M452.9,459.8h1c2.4-12,3.9-19.3,4.4-22.1c-0.2-0.8-0.3-1.5-0.5-2.4h0
				C457.7,435.4,456.1,443.6,452.9,459.8 M462.7,459.8c-0.4-1.8-1.7-8.4-3.9-19.6c-0.7,3.4-2,9.9-3.9,19.6H462.7z M105.1,509.6h-1.9
				c-2.1,0-3.2,1.2-3.2,3.5v13.7c0,2.3,1.1,3.5,3.2,3.5h5.4v-10.1h-4.2v2.5h1.4v5.1H104c-0.8,0-1.2-0.5-1.2-1.5v-12.7
				c0-1,0.4-1.5,1.2-1.5h0.7c0.8,0,1.2,0.5,1.2,1.5v1.8h2.8v-2.3C108.7,510.8,107.5,509.6,105.1,509.6 M119.3,526.4
				c0,0.9-0.4,1.4-1.1,1.4h-1.1c-0.8,0-1.2-0.4-1.2-1.4v-16.8h-2.8v16.8c0,2.6,1.1,4,3.3,4h2.3c2.2,0,3.3-1.3,3.3-3.9v-16.8h-2.8
				V526.4z M135.4,513.1v17.2h-2.8v-7.6h-3.2v7.6h-2.8v-17.2c0-2.4,1.1-3.5,3.3-3.5h2.1C134.3,509.6,135.4,510.7,135.4,513.1
				 M132.6,513.3c0-0.8-0.4-1.2-1.2-1.2h-0.7c-0.8,0-1.2,0.4-1.2,1.2v6.9h3.2V513.3z M147,521.6l1.9,8.6h-2.6l-1.8-8.4h-1.7v8.4H140
				v-20.7h5.4c2.1,0,3.2,1.2,3.2,3.5v5.1C148.6,520,148.1,521.2,147,521.6 M145.8,513.6c0-1-0.4-1.5-1.2-1.5h-1.8v7.5h1.8
				c0.8,0,1.2-0.5,1.2-1.5V513.6z M161.8,513.5v13.7c0,2-1.1,3-3.3,3h-5.4v-20.7h4.8C160.5,509.6,161.8,510.9,161.8,513.5
				 M159,513.6c0-1-0.4-1.5-1.2-1.5h-1.9v15.7h2.1c0.7,0,1.1-0.3,1.1-0.9V513.6z M166.4,530.3h6.9v-2.5h-4.1v-6.9h3.6v-2.5h-3.6
				v-6.3h4.1v-2.5h-6.9V530.3z M184.4,521.6l1.9,8.6h-2.6l-1.8-8.4h-1.7v8.4h-2.8v-20.7h5.4c2.1,0,3.2,1.2,3.2,3.5v5.1
				C186,520,185.5,521.2,184.4,521.6 M183.3,513.6c0-1-0.4-1.5-1.2-1.5h-1.8v7.5h1.8c0.8,0,1.2-0.5,1.2-1.5V513.6z M190.5,530.3h2.8
				v-20.7h-2.8V530.3z M206.6,513.1v17.2h-2.8v-7.6h-3.2v7.6h-2.8v-17.2c0-2.4,1.1-3.5,3.3-3.5h2.1
				C205.5,509.6,206.6,510.7,206.6,513.1 M203.8,513.3c0-0.8-0.4-1.2-1.2-1.2h-0.8c-0.8,0-1.2,0.4-1.2,1.2v6.9h3.2V513.3z
				 M223.7,519.6l-3-10H218v20.7h2.8v-13.6l3,9.4v4.1h2.8v-20.7h-2.8V519.6z M239.8,513.1v17.2h-2.8v-7.6h-3.2v7.6h-2.8v-17.2
				c0-2.4,1.1-3.5,3.3-3.5h2.1C238.7,509.6,239.8,510.7,239.8,513.1 M237.1,513.3c0-0.8-0.4-1.2-1.2-1.2h-0.7
				c-0.8,0-1.2,0.4-1.2,1.2v6.9h3.2V513.3z M250.7,526.4c0,0.9-0.4,1.4-1.1,1.4h-1.1c-0.8,0-1.2-0.4-1.2-1.4v-16.8h-2.8v16.8
				c0,2.6,1.1,4,3.3,4h2.3c2.2,0,3.3-1.3,3.3-3.9v-16.8h-2.8V526.4z M257.2,512.1h2.7v18.2h2.8v-18.2h2.7v-2.5h-8.1V512.1z
				 M269,530.3h2.8v-20.7H269V530.3z M281.5,509.6h-1.8c-2.2,0-3.3,1.2-3.3,3.5v13.7c0,2.4,1.1,3.5,3.3,3.5h1.8
				c2.2,0,3.3-1.2,3.3-3.5v-1.3h-2.8v1.1c0,0.8-0.4,1.2-1.1,1.2h-0.7c-0.7,0-1.1-0.4-1.1-1.2v-13.3c0-0.8,0.4-1.2,1.1-1.2h0.5
				c0.8,0,1.2,0.4,1.2,1.2v2.1h2.8v-2.3C284.8,510.7,283.7,509.6,281.5,509.6 M297.7,513.1v17.2H295v-7.6h-3.2v7.6H289v-17.2
				c0-2.4,1.1-3.5,3.3-3.5h2.1C296.6,509.6,297.7,510.7,297.7,513.1 M295,513.3c0-0.8-0.4-1.2-1.2-1.2H293c-0.8,0-1.2,0.4-1.2,1.2
				v6.9h3.2V513.3z M308.7,530.3h2.9v-3.5h-2.9V530.3z M321.7,512.1h2.7v18.2h2.8v-18.2h2.7v-2.5h-8.1V512.1z M333.6,530.3h2.8
				v-20.7h-2.8V530.3z M346,509.6h-1.9c-2.1,0-3.2,1.2-3.2,3.5v13.7c0,2.3,1.1,3.5,3.2,3.5h5.4v-10.1h-4.2v2.5h1.4v5.1h-1.9
				c-0.8,0-1.2-0.5-1.2-1.5v-12.7c0-1,0.4-1.5,1.2-1.5h0.7c0.8,0,1.2,0.5,1.2,1.5v1.8h2.8v-2.3C349.6,510.8,348.4,509.6,346,509.6
				 M360.9,521.6l1.9,8.6h-2.6l-1.8-8.4h-1.7v8.4H354v-20.7h5.4c2.1,0,3.2,1.2,3.2,3.5v5.1C362.6,520,362,521.2,360.9,521.6
				 M359.8,513.6c0-1-0.4-1.5-1.2-1.5h-1.8v7.5h1.8c0.8,0,1.2-0.5,1.2-1.5V513.6z M367,530.3h6.9v-2.5h-4.1v-6.9h3.6v-2.5h-3.6v-6.3
				h4.1v-2.5H367V530.3z M84.7,510.5H1.6l5,4.3h78.1V510.5z M84.7,518H10l4.8,4.3h69.9V518z M23.1,529.7h61.6v-4.3H18.3L23.1,529.7z
				 M392.6,514.8h78.1l5-4.3h-83.1V514.8z M392.6,522.2h69.9l4.8-4.3h-74.7V522.2z M392.5,529.7h61.6l4.8-4.3h-66.4V529.7z"></path>
			<path clip-path="url(#SVGID_4_)" fill="#FFFFFF" d="M373,277.2c-0.6,2.8-1.5,5.4-2.3,7.9c-0.3,0.8-0.6,1.6-0.8,2.4l-0.2,0.6
				c-0.2,0.4-0.4,1-0.6,1.5c-1.2,3.3-3.7,10.1-11,10.1c-0.4,0-0.8,0-1.2-0.1c-2-0.2-3.7-1.1-5-2.2c-6,9.4-12.6,17.3-20.9,24.8
				c-3.5,3.3-7.4,6.4-11.5,9.3c-10.1,7.3-21.1,12.5-31.8,17.5c-4,1.9-8,3.8-11.9,5.8c-7.4,3.7-14.7,8.9-22.2,15.7
				c-0.6,0.6-5.7,5.6-8.1,8.1l-5.8,5.8l-4.3-4.9c-1-1.1-8-8.1-8.9-8.9c-7.6-6.8-14.9-12-22.2-15.7c-4-2-7.9-3.9-11.9-5.8
				c-10.6-5-21.6-10.2-31.8-17.5c-4.1-2.9-7.9-6.1-11.5-9.3c-8.2-7.6-14.9-15.5-20.9-24.8c-1.3,1.2-2.9,2-5,2.2
				c-8.2,0.9-10.9-6.6-12.2-10c-0.2-0.6-0.4-1.1-0.6-1.5l-0.2-0.6c-0.3-0.8-0.5-1.6-0.8-2.4c-0.9-2.5-1.8-5.1-2.3-7.9
				c-2.9-14.2-3.4-25.4-1.6-37.4c0.7-4.5,2.3-9.3,4.5-13.6c0.1-0.2,2.7-5.1,7.2-5.1c3.2,0,5.8,2.3,6.3,5.5c0.4,2.6,1,4.9,1.6,7.4
				c0.3,1.2,0.6,2.4,0.9,3.6c1.1,4.7,3.7,9.9,5.9,13.9c2.1,3.7,4.1,6.5,6.5,8.9c0.4,0.4,0.8,0.8,1.3,1.2
				c-11.2-18.1-17.7-39.4-17.7-62c0-56.2,39.7-104.1,93.9-115.3c-3.8-3.1-10-4.3-20-4.3c-1.9,0-3.7,0-5.6,0.1c-2.8,0-5.6,0.1-8.3,0
				l-1.9,0c-8.1-0.2-16.4-0.4-23.4-0.7c-3.2,2.6-7.3,4-11.8,4h-1.4l-1.3-0.6c-6.8-3.3-10.3-9.7-8.8-16.3c1.5-6.5,7.2-11.2,13.6-11.2
				c3.7,0,7.3,1.6,10.2,4.5c5.1-0.3,10.5-0.5,16.2-0.7c8.7-0.4,17.7-0.7,26-1.3c-1.6-2.1-2.4-4.9-2.2-7.6l0.1-1.8l1.1-1.4
				c3.3-4.5,7.2-7.4,11.3-10.5c0.4-0.3,0.8-0.6,1.2-1c-1.4-7.3,0-15.1,4.1-21.7c4.5-7.3,11.7-12.2,19.9-13.6l0.9-0.1
				c14.4-2,27.8,6.9,32.1,21c3.6,11.9-0.1,23.7-9.8,31.6c0.6,2.8,3.4,3.8,12.1,4.3c0.9,0.1,1.8,0.1,2.6,0.2
				c10.2,0.9,21.9,1.3,33.3,1.8c5.6,0.2,11.1,0.5,16.2,0.7c3-2.9,6.5-4.5,10.2-4.5c6.4,0,12.1,4.7,13.6,11.2
				c1.5,6.6-1.9,13-8.8,16.3l-1.3,0.6h-1.4c-4.6,0-8.7-1.4-11.8-4c-7.1,0.3-15.4,0.5-23.4,0.7l-1.9,0c-2.7,0.1-5.5,0-8.3,0
				c-1.8,0-3.7-0.1-5.5-0.1c-10,0-16.2,1.2-20.1,4.3c54.1,11.1,93.8,59.1,93.8,115.3c0,22.9-6.7,44.5-18.3,62.8
				c0.8-0.7,1.6-1.4,2.3-2.1c2.3-2.4,4.4-5.2,6.5-8.9c2.2-3.9,4.9-9.1,6-13.9c0.3-1.2,0.6-2.5,0.9-3.7c0.6-2.5,1.2-4.8,1.6-7.4
				c0.5-3.2,3.2-5.5,6.3-5.5c4.6,0,7.1,4.9,7.3,5.1c2.2,4.2,3.8,9,4.5,13.5C376.4,251.8,375.9,263,373,277.2 M368.7,240.7
				c-0.6-3.9-2-8.1-3.8-11.6c-0.2-0.4-1.9-2.6-2.1-1.4c-0.7,4.2-1.7,7.7-2.6,11.5c-1.2,5.3-3.9,10.7-6.6,15.5
				c-2.1,3.7-4.4,7.2-7.5,10.2c-2.9,3-6.3,5.5-9.7,7.8c-2,1.3-4,2.6-6,3.9c-0.5,1-1.7,2-0.7,3c0.5,0.6,2,0.6,2.8,0.6
				c2.5-0.3,5.1-1.4,7.6-1.1c1.4,0.1,1.7-0.1,2,1.5c0.2,1.2-1.3,4-1.9,5c-4,6.4-8.4,12.4-14.4,17c-13.7,10.4-30,19.8-47.4,21.6
				c-5.3,0.6-11.4,0.8-16.1-2.1c-1.4-0.8-2.6-1.9-3.6-3.1c-0.6-0.6-1.1-1.3-1.6-2c-1.2-1.7-1.8-4.4-2.2-6.6
				c54.6-7.3,96.7-54,96.7-110.6c0-57-42.7-104-97.8-110.8c6.1-18.2,27.4-14.4,43.8-14.8c9.5-0.2,19.8-0.4,27.8-0.9
				c2.4,2.9,5.8,4.1,9.5,4.1c13.6-6.6-0.5-24.3-9.7-11.3c-15.6-0.9-36.1-1.3-52.6-2.7c-7.9-0.7-21.3,0-20.5-13.5
				c22.4-15,8.1-47.1-15.5-43.6l-0.6,0c-13.8,2.3-22.4,17.2-18.4,30.3c0.2-0.2,0.4-0.3,0.6-0.5l0,0l0,0l12.2-9
				c1-4.4,4.9-7.7,9.6-7.7c5.5,0,9.9,4.4,9.9,9.9c0,5.5-4.4,9.9-9.9,9.9c-1.4,0-2.8-0.3-4-0.8l-11.4,7.9c-0.3,0.2-0.5,0.4-0.8,0.6
				c1.1,1.1,2.4,2.1,3.8,3.1c0.8,13.5-12.5,12.9-20.5,13.5c-16.5,1.4-37,1.8-52.6,2.7c-9.3-13-23.4,4.7-9.7,11.3
				c3.7,0,7.1-1.2,9.5-4.1c8,0.5,18.4,0.7,27.8,0.9c16.4,0.4,37.7-3.4,43.9,14.8c-55.1,6.8-97.8,53.8-97.8,110.8
				c0,56.7,42.3,103.6,97.1,110.7c-0.4,2.2-1,4.8-2.2,6.5c-0.5,0.7-1,1.4-1.6,2c-1.1,1.2-2.3,2.3-3.6,3.1
				c-4.7,2.9-10.8,2.6-16.1,2.1c-17.4-1.8-33.7-11.2-47.4-21.6c-6-4.6-10.5-10.6-14.4-17c-0.6-1-2.1-3.8-1.9-5
				c0.3-1.6,0.6-1.3,2-1.5c2.5-0.2,5.1,0.9,7.6,1.1c0.7,0.1,2.2,0,2.8-0.6c1-1-0.2-2-0.7-3c-2-1.3-4-2.6-6-3.9
				c-3.4-2.4-6.8-4.9-9.7-7.8c-3-3.1-5.4-6.5-7.5-10.2c-2.6-4.8-5.4-10.2-6.6-15.5c-0.9-3.8-1.9-7.2-2.6-11.5
				c-0.2-1.2-1.9,1.1-2.1,1.4c-1.8,3.5-3.2,7.7-3.8,11.6c-1.7,11.7-1.1,22.4,1.5,35.3c0.7,3.3,1.9,6.4,3,9.6c1.3,2.9,2.3,8.5,6.5,8
				c3.2-0.4,4.6-6.6,5.2-9c6.9,12.9,14.6,23.3,25.4,33.2c3.4,3.2,7.1,6.1,10.9,8.9c13.4,9.6,28.3,15.4,42.9,22.8
				c8.7,4.4,16.4,10.1,23.6,16.6c0.9,0.8,8.2,8.1,9.4,9.5l1.1-1.1c2.4-2.5,7.7-7.7,8.4-8.4c7.2-6.5,14.9-12.2,23.6-16.6
				c14.6-7.4,29.5-13.2,42.9-22.8c3.8-2.7,7.4-5.7,10.9-8.9c10.9-10,18.6-20.3,25.4-33.2c0.6,2.5,2,8.7,5.2,9c4.2,0.5,5.2-5.1,6.5-8
				c1-3.2,2.3-6.3,3-9.6C369.9,263.1,370.5,252.4,368.7,240.7 M119,252.8c-1.2-5-1.6-8-1.9-15.2l1.6,8.4c1.8,6.4,3.5,12.9,6.4,18.9
				c0.5,1,4.3,7.6,3.1,8.3c-1.4,0.8-2.5-1.9-3-2.8C121.8,263.9,120.4,258.9,119,252.8 M122.9,287.9c-0.1,0.2-0.4,2.1-1,2.1
				c-0.5,0-0.7-0.5-0.8-1c-0.1-0.5,0-2,0.4-2.7c1.3-2.5,2.5-4.8,4.7-6.7c1.6-1.4,3.4-2.7,5.4-3.2c2-0.5,3.7-0.5,5.9-0.2
				C130.1,276.5,125.3,280.9,122.9,287.9 M238.8,52.5c0.6,3.6,2.4,8.3,1.6,11.9c-0.1,0.4-1.2,2.6-1.2,2.6
				C236.2,62.5,239.6,57,238.8,52.5 M201,69.5c1.2,0,2.5,0,3.7-0.1c4.8-0.1,9.7-0.2,14.5-0.3h40c4.8,0.1,9.7,0.2,14.5,0.3
				c1.2,0,2.5,0.1,3.7,0.1c0,0-24.1,1.3-24.2,1.3c-2.6,0.1-5.2-0.2-7.8,0.5c-3.2,1-3.9,3.5-5.2,6.3l-0.9,6l-0.2,3.3l-0.2-3.3l-0.9-6
				c-1.3-2.8-2-5.3-5.2-6.3c-2.5-0.8-5.2-0.4-7.8-0.5C225.1,70.8,201,69.5,201,69.5 M132.3,199.8c0-28.8,11.2-55.9,31.6-76.2
				c20.4-20.4,47.4-31.6,76.2-31.6c28.8,0,55.9,11.2,76.2,31.6c20.4,20.4,31.6,47.4,31.6,76.2c0,28.8-11.2,55.9-31.6,76.2
				c-20.4,20.4-47.4,31.6-76.2,31.6c-28.8,0-55.9-11.2-76.2-31.6C143.5,255.7,132.3,228.6,132.3,199.8 M240.1,311.4
				c0.3,3.7,2.3,28.6,2.3,28.6c0,1.2,0.9,13.4-1.9,10.7c-1-1-0.4-4.5-0.4-5.8C240,333.8,240,322.6,240.1,311.4
				C240,311.4,240.1,311.4,240.1,311.4 M259.4,352.3c-3.8,1.9-8.3,3.1-12.1,4.5c-2.1,0.8-3.6,2.2-4.8,4.1c-1.3,2-1.3,4.6-1.6,6.8
				l-0.3,4.7l-0.1-0.8l-0.3-3.9c-0.3-2.2-0.3-4.8-1.6-6.8c-1.2-1.9-2.7-3.3-4.8-4.1c-3.8-1.4-8.3-2.6-12.1-4.5
				c-0.2-0.1-10.3-4.9-10.3-4.9l6.6,2.1c2.1,0.9,2.9,1.1,3.9,1.5c1.6,0.6,3.2,1.1,4.8,1.7c3.3,1,6.6,1.8,10,2.1l3.4,0.2h2.4l1.8-0.2
				c3.4-0.3,6.7-1.1,10-2.1c1.6-0.5,3.2-1.1,4.8-1.7c1.1-0.4,1.9-0.6,3.9-1.5l6.6-2.1C269.7,347.3,259.6,352.2,259.4,352.3
				 M359.2,288.9c-0.1,0.5-0.3,1-0.8,1c-0.6,0-0.9-1.9-1-2.1c-2.4-7-7.2-11.3-14.7-11.7c2.3-0.4,3.9-0.3,5.9,0.2
				c2.1,0.5,3.8,1.8,5.4,3.2c2.2,1.8,3.4,4.2,4.7,6.7C359.2,286.9,359.3,288.4,359.2,288.9 M361.4,252.8c-1.5,6-2.8,11-6.2,17.6
				c-0.5,0.9-1.5,3.6-3,2.8c-1.2-0.7,2.6-7.2,3.1-8.3c2.9-6,4.6-12.5,6.4-18.9c0,0,1.6-8.4,1.6-8.4
				C363,244.8,362.6,247.8,361.4,252.8 M208.7,55.8c5.3-3.2,10.2-6.8,15.6-10.5l12.2-8.5c2.9-2.3,5.4-3.8,6.1-7.2
				c-0.1-0.5-0.2-1.3-0.3-1.9c-0.8-1.2-2.2-2-3.7-2.2c-2.3,0.4-3.7,0.6-6.5,2.1l-12.9,9.5c-6.1,5.1-11.5,8.1-15.7,13.6
				C203.4,53.7,205.5,56.7,208.7,55.8 M218.1,116.7c-0.3-0.6-1.4-2.8-3.3-6.7l0,0c0,0,0.2,2.5,0.5,7.4L218.1,116.7z M284.5,121.1
				l1.4-2.6c-0.1-0.4-0.2-0.8-0.4-1.3l-2.8-1.5l-2.3,4.2l2.8,1.5C283.8,121.4,284.2,121.3,284.5,121.1 M267.1,110.5L267.1,110.5
				c0,0-1.2,2.2-3.6,6.5l2.8,0.9C266.4,117.3,266.7,114.9,267.1,110.5 M318.3,148.9L318.3,148.9c0,0-2.3,0.9-6.9,2.7l1.6,2.5
				C313.4,153.7,315.1,152,318.3,148.9 M172.7,153.7c0,0-0.2-0.5-0.5-1.6l-8.2-5.6c-1.1,0.1-1.6,0.1-1.6,0.1l-1.8,2.6l10.3,7
				L172.7,153.7z M235.1,282.4c-0.4,0.3-0.7,0.5-0.9,0.6l-0.4,9.9c0,0,0.3,0.3,0.9,0.7l2,0.1c0.5-0.3,0.8-0.5,0.9-0.6l0.4-9.9
				c0,0-0.3-0.2-0.9-0.7L235.1,282.4z M344.2,214.3L344.2,214.3l0.2-2.2h-57.1v-3.7h35l4.6-4.1h-39.6v-3h43l4.6-4.1h-47.5v-3H338
				l4.8-4.1h-55.6v-3.6l56.9,0.2l-0.1-2.6h0l0-0.4c-7.8-50.4-51.3-88.9-103.9-88.9c-52.7,0-96.3,38.8-103.9,89.4h0l-0.3,2.4h57.3
				v3.6h-57.3l4.8,4.1h52.5v3h-49.2l4.6,4.1h44.7v3h-41.3l4.6,4.1h36.7v3.7h-57.4l0.1,1h0c0,0.3,0.1,0.5,0.1,0.8l0.1,0.5h0
				c7.1,51.1,51,90.5,104.1,90.5C293.2,304.9,337.1,265.5,344.2,214.3 M251.7,295.7l-2.8,0.3c0,0-0.3-0.6-0.8-1.9
				c0.4-0.5,0.6-1.2,0.5-2l-0.9-9.5c-0.3,0.3-0.6,0.6-0.8,1c-0.1,0.2-0.2,0.4-0.2,0.4c-1.1-0.5-1.6-0.8-1.7-0.8v0
				c1-2.4,1.5-3.6,1.5-3.7l3.6-0.4c0,0,0.2,0.3,0.4,1c0.1,0.1,0.2,0.5,0.4,1c-0.3,0.4-0.4,0.8-0.5,1.1c0,0.1,0,0.2,0,0.3l0.8,8.4
				c0,0.3,0.1,0.7,0.1,1.3c0.1,0.3,0.2,0.5,0.2,0.7c0.1,0.2,0.3,0.5,0.6,0.8l0,0C251.9,294.8,251.7,295.5,251.7,295.7 M266,292.9
				l-6.2,1.5c0,0-0.2-0.1-0.4-0.2c-0.2-0.1-0.9-0.5-2-1.2l0,0c0.2-0.5,0.3-0.9,0.3-1.3c0-0.2,0-0.3,0-0.4l-0.6-2.6
				c-0.1-0.5-0.4-1-0.9-1.3l0,0c0.1-0.1,0.7-0.9,1.9-2.4l3.6-1l0.6-1l-0.5-2c-0.1-0.3-0.2-0.8-0.4-1.4c-0.8,0.2-1.4,0.3-1.9,0.5
				l-1.1,0.3c-0.1,0-0.3,0.1-0.5,0.1l0.2,0.9c0,0-0.8,0.6-2.4,1.8l0,0l-0.2-0.9c-0.2-0.8-0.5-1.4-0.9-1.6c0,0-0.1-0.1-0.2-0.1
				c0,0,0.6-0.8,1.9-2.4c0,0,0-0.1,0.1-0.1l5.1-1.3l2.9,1.3c-0.3,0.5-0.3,1-0.3,1.4c0.3,1.3,0.5,2.2,0.7,2.8l0.1,0.4
				c0.1,0.4,0.3,0.6,0.6,0.7l0,0v0c-1.1,1.8-1.6,2.7-1.7,2.8c-2.1,0.6-3.3,0.9-3.6,1l-0.6,0.9l0.8,3.4l2.6-0.6c0.5-0.1,1-0.5,1.4-1
				c0.2-0.3,0.4-0.7,0.5-1c0.1-0.3,0.2-0.4,0.2-0.4c0.3,0.1,0.8,0.3,1.7,0.5c0,0,0,0,0.1,0C266.4,291.5,266,292.8,266,292.9
				 M304.6,270.5c0.1-0.2-0.6-1.5-0.8-1.4c-1,0.7-1.9,1.4-3,2.1c-0.7,0.5-1.5,1-2.3,1.2c-1.6,0.5-2.9-0.5-3.5-1.9l-0.2-0.4
				c-1.3,1.1-2.8,2.2-4.1,3.4c-1.4,1.2-2.7,2.1-4.1,3.1c-2.6,1.8-5.2,3.3-8,4.9c0,0-0.8,0.5-0.8,0.5l-0.9-1.2
				c1.2-0.7,4.3-2.4,4.5-2.6c3-2,6-3.9,8.9-6.3c0.8-0.7,1.6-1.3,2.4-2c0.3-0.3,0.6-0.5,0.9-0.9c0,0-0.6-0.6-0.7-0.7
				c-0.4-0.4-0.6-0.9-0.7-1.5c-0.1-1.2,0.6-2,1.4-2.7c0.3-0.3,3.7-3.3,3.7-3.2c-0.2-0.2-0.5-0.5-0.8-0.6c-0.1-0.1-0.5-0.3-0.6-0.3
				l4.6-1l-1.8,4.4c0.1-0.2-0.2-0.9-0.4-1.1l-0.5-0.5c-0.6,0.5-1.1,0.9-1.9,1.5c-0.9,0.8-3.3,2.5-2.3,3.9c1.3,1.8,3.5-0.3,4.7-1.1
				c1-0.7,1.7-1.3,2.5-2c-0.3-0.4-0.5-0.5-0.9-0.8l4.3-1.1c0,0-1.9,4-2,4.1c0.1-0.2-0.1-0.6-0.2-0.8c-0.1-0.1-0.5-0.6-0.6-0.5
				l-1.7,1.2c-0.9,0.7-1.4,1.1-2.1,1.8c-0.5,0.5-1.5,1.2-1.6,1.9c-0.1,0.8,0.6,1.4,1.3,1.6c1,0.2,1.9-0.4,2.6-0.9c1-0.7,2-1.3,2.9-2
				c0.1-0.1-0.9-1.1-1.1-1l3.9-0.9C306,266.3,304.6,270.4,304.6,270.5 M202.8,244.8c0.1,0.7,0.1,1.5,0.1,2.4l0,0.3
				c0,0.9,0,1.7,0.1,2.6c-0.3,0-0.8-0.2-1.6-0.8c-0.4-0.3-0.7-0.9-0.8-1.8l0,0c-0.1-0.8,0-1.8,0-2.7c0-0.2,0-0.5,0.1-0.7
				c0-0.6,0.1-1.2,0.1-1.7c0.3,0,0.7,0.2,1.3,0.7c0.3,0.3,0.6,0.8,0.7,1.4L202.8,244.8z M199.7,242c0,0.7,0,1.4-0.1,2.3l0,0.4
				c-0.1,1-0.1,1.8,0,2.5c-0.4-0.1-0.9-0.3-1.5-0.9c-0.4-0.4-0.6-1-0.7-1.9v0c-0.1-0.8,0.1-1.8,0.2-2.7l0-0.3
				c0.1-0.7,0.2-1.4,0.3-2.1c0.3,0,0.8,0.2,1.3,0.8c0.3,0.3,0.5,0.8,0.6,1.5L199.7,242z M196.5,241.2l-0.1,0.4
				c-0.1,0.8-0.2,1.7-0.2,2.6c-0.3-0.1-0.8-0.3-1.5-1c-0.4-0.4-0.6-1-0.5-1.9v0c0-0.9,0.2-1.8,0.4-2.7c0-0.2,0.1-0.4,0.1-0.7
				c0.1-0.6,0.3-1.2,0.3-1.7c0.3,0.1,0.7,0.3,1.2,0.9c0.3,0.3,0.4,0.8,0.5,1.5l0,0.3C196.7,239.5,196.6,240.3,196.5,241.2
				 M194.1,235.5L194.1,235.5c-0.1,0.7-0.2,1.5-0.4,2.3l-0.1,0.4c-0.2,1-0.3,1.8-0.4,2.5c-0.5-0.2-1-0.5-1.4-1.1
				c-0.3-0.4-0.5-1.1-0.4-1.9l0,0c0.1-0.8,0.3-1.7,0.6-2.6l0.1-0.3c0.2-0.7,0.4-1.4,0.5-2c0.3,0.1,0.7,0.3,1.2,1
				c0.2,0.4,0.4,0.8,0.3,1.5L194.1,235.5z M191.6,231.8l0,0.3l0,0c-0.1,0.7-0.4,1.5-0.6,2.3l-0.1,0.4c-0.2,0.8-0.5,1.7-0.6,2.5
				c-0.3-0.1-0.8-0.5-1.3-1.2c-0.3-0.4-0.4-1.1-0.2-2v0c0.1-0.8,0.5-1.8,0.8-2.6c0.1-0.2,0.2-0.4,0.2-0.6c0.2-0.6,0.4-1.1,0.6-1.7
				c0.3,0.1,0.7,0.4,1.1,1.1C191.6,230.6,191.7,231.1,191.6,231.8 M189.4,228.1l-0.1,0.3c-0.2,0.7-0.4,1.4-0.8,2.2l-0.2,0.4
				c-0.4,0.9-0.6,1.7-0.7,2.4c-0.4-0.2-0.9-0.6-1.2-1.3c-0.3-0.5-0.3-1.1-0.1-2l0,0c0.2-0.8,0.6-1.7,1-2.5l0.2-0.3
				c0.3-0.6,0.6-1.3,0.8-1.9c0.3,0.1,0.7,0.4,1,1.1C189.5,226.9,189.6,227.4,189.4,228.1 M187.5,224.3L187.5,224.3L187.5,224.3
				l-0.1,0.3l0,0.1c-0.2,0.7-0.6,1.4-0.9,2.2l-0.2,0.3c-0.3,0.7-0.7,1.6-0.9,2.4c-0.3-0.2-0.7-0.6-1.1-1.4c-0.2-0.5-0.2-1.1,0-2l0,0
				c0.3-0.8,0.7-1.7,1.1-2.5c0.1-0.2,0.2-0.4,0.4-0.6c0.3-0.5,0.6-1,0.8-1.5c0.2,0.1,0.6,0.5,0.9,1.2
				C187.7,223.2,187.7,223.7,187.5,224.3 M185.9,220.4l0,0.1l-0.1,0.2c-0.2,0.6-0.6,1.3-1.1,2l-0.2,0.4c-0.5,0.9-0.8,1.6-1.1,2.3
				c-0.3-0.2-0.7-0.7-1-1.5c-0.2-0.5-0.1-1.2,0.2-2l0,0c0.3-0.7,0.8-1.5,1.3-2.3l0.2-0.3c0.4-0.6,0.8-1.2,1.1-1.7
				c0.2,0.2,0.6,0.5,0.8,1.3C186.2,219.3,186.1,219.8,185.9,220.4 M184.8,214.9c0.1,0.4,0,0.9-0.2,1.6l-0.1,0.3
				c-0.4,0.7-0.9,1.4-1.4,2.3c-0.5,0.7-0.9,1.5-1.3,2.2c-0.2-0.2-0.6-0.7-0.9-1.6c-0.2-0.5-0.1-1.2,0.3-1.9l0,0
				c0.4-0.8,1-1.6,1.5-2.3l0.8-1h1.2L184.8,214.9z M181.6,215c-0.4,0.5-0.9,1.2-1.3,1.9c-0.2-0.3-0.6-0.7-0.8-1.6
				c0-0.2-0.1-0.4,0-0.6l0.1-0.2h2.5L181.6,215z M178.5,215.6c0.4,1.4,0.9,2.1,1.4,2.4c-0.3,0.7-0.3,1.4-0.1,2.1
				c0.5,1.4,1.1,2,1.6,2.3c-0.2,0.8-0.2,1.5,0.1,2.1c0.5,1.3,1.2,1.9,1.7,2.2c-0.2,0.8-0.1,1.5,0.2,2.1c0.7,1.4,1.4,1.9,1.9,2
				c-0.1,0.8,0,1.5,0.3,2c0.7,1.2,1.5,1.7,2,1.9c0,0.8,0.1,1.5,0.5,2c0.9,1.3,1.7,1.6,2.2,1.8c0,0.8,0.2,1.5,0.6,2
				c0.9,1.1,1.7,1.5,2.3,1.6c0.1,0.8,0.3,1.5,0.8,1.9c1.1,1.1,1.9,1.4,2.4,1.4c0.1,0.8,0.4,1.4,0.9,1.8c1,1,1.9,1.2,2.5,1.2
				c0.2,0.8,0.5,1.4,1,1.8c1.2,1,2.1,1.1,2.6,1.1c0.3,0.7,0.6,1.3,1.2,1.7c0.9,0.6,1.7,0.9,2.4,0.9c0.1,0,0.2,0,0.2,0
				c0.3,0.7,0.7,1.3,1.3,1.6c1,0.6,2,0.8,2.7,0.7c0.4,0.7,0.8,1.2,1.4,1.5c1,0.5,2,0.6,2.7,0.5c0.4,0.7,0.9,1.2,1.5,1.4
				c1.1,0.4,2.1,0.5,2.7,0.3c0.5,0.7,1,1.1,1.6,1.3c1.1,0.4,2,0.4,2.8,0.1c0.5,0.7,1.1,1.1,1.7,1.2c0.5,0.1,1,0.2,1.4,0.2
				c0.7,0,1.1-0.1,1.3-0.3c0.6,0.6,1.1,0.9,1.8,1c1.1,0.2,2,0.1,2.7-0.3c0.6,0.6,1.3,0.9,1.9,0.9c1.5,0.1,2.3-0.2,2.7-0.5
				c0.6,0.5,1.2,0.7,1.9,0.8c1.5,0.1,2.2-0.3,2.7-0.7c0.6,0.4,1.3,0.7,1.9,0.7l0.1,0c1.4-0.1,2.2-0.5,2.6-0.9c0.7,0.4,1.3,0.6,2,0.5
				c1.5-0.2,2.2-0.7,2.6-1.1c0.7,0.3,1.4,0.5,2,0.4c1.4-0.3,2.1-0.8,2.5-1.3c0.8,0.3,1.5,0.4,2.1,0.2c1.5-0.4,2.1-1,2.4-1.4
				c0.8,0.2,1.4,0.3,2.1,0.1c1.1-0.4,1.8-0.9,2.2-1.6c0.8,0.2,1.5,0.2,2.1-0.1c1.4-0.6,1.9-1.3,2.1-1.8c0.8,0.1,1.5,0,2-0.2
				c1-0.5,1.7-1.2,2-1.9c0.2,0,0.3,0,0.5,0c0.6,0,1.2-0.1,1.6-0.4c1.3-0.8,1.7-1.6,1.9-2.1c0.8,0,1.5-0.2,2-0.5
				c0.9-0.6,1.5-1.4,1.7-2.2c0.8,0,1.5-0.3,2-0.7c1.2-1,1.5-1.8,1.6-2.3c0.8-0.1,1.4-0.4,1.9-0.8c0.8-0.8,1.3-1.6,1.4-2.4
				c0.8-0.2,1.5-0.5,1.8-0.9c1-1.2,1.2-2,1.2-2.5c0.8-0.2,1.4-0.6,1.7-1.1c0.7-0.9,1-1.8,1-2.6c0.8-0.3,1.4-0.7,1.7-1.2
				c0.9-1.4,0.9-2.2,0.8-2.6c0.7-0.3,1.3-0.8,1.6-1.3c0.6-1,0.8-1.9,0.6-2.7c0.7-0.4,1.3-0.9,1.5-1.4c0.6-1.4,0.6-2.3,0.4-2.8
				c0.6-0.4,1.1-0.8,1.3-1.4c0.5-1.1,0.6-2.1,0.3-2.9l0,0c0.7-0.5,1.1-1,1.3-1.6c0.5-1.6,0.2-2.5,0-2.9c0.4-0.4,0.7-0.8,0.8-1.2
				l1.9,0c-2.7,12.2-8.8,23.5-17.9,32.5c-12.6,12.6-29.3,19.5-47.1,19.5c-17.8,0-34.5-6.9-47.1-19.5c-9.1-9.1-15.2-20.3-17.9-32.5
				h3.4C178.4,214.8,178.4,215.2,178.5,215.6 M209.7,249.8L209.7,249.8c0.2,0.7,0.3,1.6,0.4,2.5l0,0.3c0.1,0.8,0.3,1.7,0.5,2.5
				c-0.3,0-0.9-0.1-1.7-0.6c-0.5-0.3-0.8-0.8-1-1.7l0,0c-0.2-0.8-0.3-1.8-0.4-2.7c0-0.2,0-0.5-0.1-0.7c0-0.6-0.1-1.1-0.2-1.7
				c0,0,0,0,0.1,0c0.3,0,0.7,0.1,1.4,0.5c0.4,0.2,0.7,0.7,0.9,1.3L209.7,249.8z M213.2,251.6l0.1,0.3l0,0c0.2,0.6,0.4,1.4,0.6,2.3
				l0.1,0.4c0.2,1,0.4,1.7,0.7,2.4c-0.5,0-1.1-0.1-1.7-0.4c-0.5-0.2-0.9-0.8-1.2-1.6l0,0c-0.3-0.8-0.4-1.8-0.6-2.6l-0.1-0.4
				c-0.1-0.7-0.2-1.4-0.3-2c0.3-0.1,0.7,0,1.5,0.4C212.7,250.6,212.9,251,213.2,251.6 M217.2,253.8c0.3,0.6,0.5,1.4,0.7,2.2l0.1,0.4
				c0.2,0.8,0.5,1.6,0.9,2.4c-0.1,0-0.1,0-0.3,0c-0.4,0-0.9-0.1-1.5-0.3c-0.5-0.2-0.9-0.7-1.3-1.5v0c-0.3-0.8-0.6-1.7-0.8-2.6
				c-0.1-0.2-0.1-0.4-0.1-0.7c-0.1-0.6-0.2-1.2-0.4-1.7c0.1,0,0.2,0,0.3,0c0.4,0,0.8,0.1,1.2,0.3c0.4,0.2,0.7,0.6,1,1.2L217.2,253.8
				z M221.1,255.3L221.1,255.3c0.3,0.6,0.6,1.4,0.9,2.2l0.1,0.4c0.3,0.9,0.7,1.6,1,2.3c-0.5,0.1-1.1,0.1-1.8-0.1
				c-0.5-0.2-1-0.7-1.4-1.4l0,0c-0.4-0.7-0.7-1.6-0.9-2.5l-0.1-0.4c-0.2-0.7-0.4-1.3-0.6-1.9c0.1,0,0.3-0.1,0.5-0.1
				c0.3,0,0.7,0.1,1,0.2c0.4,0.2,0.7,0.5,1.1,1.1L221.1,255.3z M225,256.3l0.2,0.3c0.3,0.5,0.6,1.2,0.9,1.8l0.3,0.6
				c0.4,0.8,0.8,1.6,1.2,2.3c-0.2,0-0.4,0.1-0.7,0.1c-0.3,0-0.7,0-1.1-0.1c-0.5-0.1-1-0.6-1.5-1.3l0,0c-0.4-0.7-0.8-1.6-1.1-2.4
				L223,257c-0.2-0.6-0.5-1.2-0.7-1.8c0.1,0,0.3-0.1,0.5-0.1c0.3,0,0.6,0.1,1,0.2C224.3,255.5,224.6,255.8,225,256.3 M229.4,257.6
				c0.4,0.5,0.8,1.2,1.2,2l0.2,0.4c0.5,0.9,0.9,1.6,1.3,2.1c-0.5,0.2-1.1,0.3-1.8,0.1c-0.5-0.1-1.1-0.5-1.6-1.2l0,0
				c-0.5-0.7-0.9-1.6-1.3-2.4c-0.3-0.7-0.7-1.5-1-2.1c0.2-0.1,0.4-0.2,0.8-0.2c0.2,0,0.5,0,0.7,0.1c0.4,0.1,0.8,0.4,1.3,0.9
				L229.4,257.6z M233.5,258.3c0.4,0.4,0.7,1,1.1,1.5c0.1,0.2,0.3,0.5,0.5,0.7c0.4,0.7,0.9,1.4,1.5,2.1c-0.3,0.1-0.8,0.3-1.8,0.2
				c-0.5,0-1.1-0.4-1.7-1.1c-0.6-0.7-1.1-1.6-1.5-2.3l-0.2-0.3c-0.3-0.6-0.7-1.2-1-1.8c0.2-0.1,0.5-0.2,0.9-0.2c0.2,0,0.4,0,0.6,0.1
				c0.5,0.1,0.9,0.3,1.3,0.8L233.5,258.3z M237.8,258.7c0.5,0.5,0.9,1.1,1.4,1.7l0.2,0.3c0.5,0.6,1,1.4,1.7,1.9
				c-0.3,0.2-0.8,0.4-1.8,0.3c-0.6,0-1.1-0.3-1.7-0.9l0,0c-0.6-0.6-1.1-1.4-1.6-2.2l-0.1-0.1c-0.4-0.6-0.8-1.3-1.3-1.8
				c0.2-0.2,0.7-0.3,1.5-0.3c0.5,0,0.9,0.3,1.4,0.8L237.8,258.7z M242.1,258.7c0.5,0.4,1,1,1.5,1.6l0.3,0.4c0.5,0.6,1.1,1.3,1.8,1.8
				c-0.3,0.2-0.8,0.4-1.8,0.5c-0.5,0-1.1-0.3-1.8-0.9l0,0c-0.5-0.5-1.1-1.1-1.8-2l-0.2-0.3c-0.4-0.6-0.8-1.1-1.3-1.6
				c0.2-0.2,0.6-0.4,1.3-0.4h0.2c0.5,0,1,0.2,1.5,0.6L242.1,258.7z M246.3,258.5c0.6,0.5,1.3,1.2,2,1.9c0.6,0.6,1.3,1.2,1.9,1.7
				c-0.3,0.2-0.8,0.5-1.7,0.6c-0.6,0.1-1.2-0.2-1.8-0.7l0,0c-0.7-0.5-1.4-1.3-1.9-1.9c-0.2-0.2-0.4-0.4-0.6-0.6
				c-0.3-0.4-0.7-0.8-1.1-1.1c0.2-0.2,0.6-0.4,1.4-0.5c0.5,0,0.9,0.1,1.5,0.5L246.3,258.5z M250.5,257.9L250.5,257.9
				c0.6,0.4,1.2,0.9,1.8,1.5l0.3,0.3c0.7,0.6,1.4,1.1,2,1.5c-0.4,0.3-0.9,0.6-1.6,0.7c-0.6,0.1-1.2-0.1-1.9-0.6h0
				c-0.7-0.4-1.3-1-2.1-1.8l-0.3-0.3c-0.5-0.5-1-1-1.5-1.4c0.2-0.2,0.6-0.5,1.4-0.6c0.4-0.1,0.9,0.1,1.5,0.4L250.5,257.9z
				 M254.7,257.1c0.5,0.3,1.1,0.7,1.7,1.2l0.5,0.4c0.6,0.5,1.4,1,2.2,1.4c-0.2,0.2-0.7,0.6-1.6,0.8c-0.5,0.2-1.2,0-1.9-0.4l0,0
				c-0.7-0.4-1.5-1-2.2-1.6l-0.5-0.4c-0.5-0.4-0.9-0.8-1.4-1.1c0.2-0.2,0.6-0.5,1.4-0.7c0.4-0.1,0.9,0,1.5,0.3L254.7,257.1z
				 M258.8,256c0.6,0.3,1.3,0.7,2,1.2l0.4,0.2c0.8,0.5,1.5,0.9,2.2,1.2c-0.3,0.4-0.8,0.7-1.5,1c-0.5,0.2-1.2,0.1-2-0.3l0,0
				c-0.7-0.3-1.5-0.9-2.3-1.5l-0.1,0c-0.6-0.5-1.3-1-1.9-1.3c0.2-0.2,0.6-0.6,1.3-0.8c0.4-0.1,0.9-0.1,1.6,0.2L258.8,256z
				 M262.4,254.4L262.4,254.4l0.4,0.1c0.5,0.2,1.1,0.5,1.8,0.9c0.2,0.1,0.4,0.2,0.7,0.4c0.7,0.4,1.5,0.8,2.3,1.1
				c-0.2,0.3-0.6,0.7-1.5,1.1c-0.5,0.2-1.1,0.2-2-0.1l0,0c-0.8-0.3-1.6-0.8-2.4-1.3l-0.3-0.2c-0.6-0.4-1.2-0.8-1.7-1.1
				c0.2-0.2,0.5-0.6,1.3-0.8C261.3,254.2,261.8,254.2,262.4,254.4 M266.3,252.7l0.3,0.1c0.6,0.2,1.3,0.5,2.1,0.9l0.4,0.2
				c0.9,0.4,1.7,0.7,2.4,0.9c-0.3,0.4-0.7,0.8-1.3,1.2c-0.5,0.2-1.2,0.2-2,0h0c-0.8-0.2-1.6-0.7-2.5-1.1c-0.7-0.4-1.5-0.8-2.1-1.1
				c0.1-0.3,0.5-0.6,1.2-1C265.2,252.6,265.6,252.5,266.3,252.7 M270.1,250.7l0.3,0.1c0.6,0.1,1.2,0.4,1.8,0.6
				c0.2,0.1,0.5,0.2,0.7,0.3c0.8,0.3,1.6,0.6,2.5,0.7c-0.2,0.3-0.5,0.7-1.3,1.3c-0.4,0.3-1.1,0.3-2,0.1l0,0
				c-0.9-0.2-1.8-0.6-2.5-0.9l-0.3-0.2c-0.6-0.3-1.3-0.6-1.9-0.8c0.1-0.3,0.4-0.7,1.1-1C268.9,250.7,269.4,250.6,270.1,250.7
				 M273.7,248.5l0.4,0c0.6,0.1,1.4,0.3,2.2,0.5l0.4,0.1c1,0.3,1.8,0.5,2.5,0.5c-0.2,0.5-0.6,0.9-1.2,1.3c-0.4,0.3-1.1,0.4-2,0.3
				l0,0c-0.8-0.1-1.7-0.4-2.6-0.7c-0.7-0.3-1.5-0.5-2.3-0.8c0.1-0.3,0.4-0.7,1-1.1C272.5,248.5,273,248.4,273.7,248.5 M276.9,246
				l0.5,0c0.6,0.1,1.2,0.2,1.9,0.3c0.2,0,0.5,0.1,0.7,0.1c0.8,0.2,1.7,0.3,2.5,0.4c-0.1,0.3-0.4,0.8-1.1,1.4
				c-0.3,0.3-0.8,0.4-1.5,0.4c-0.1,0-0.3,0-0.4,0h0c-0.9-0.1-1.9-0.3-2.6-0.5l-0.4-0.1c-0.7-0.2-1.3-0.4-1.9-0.5
				c0.1-0.3,0.3-0.7,1-1.2C275.9,246.1,276.4,246,276.9,246 M280.3,243.3l0.4,0c0.7,0,1.4,0.1,2.2,0.2l0.4,0.1
				c1,0.1,1.8,0.2,2.5,0.2c-0.1,0.5-0.4,1-0.9,1.5c-0.4,0.4-1,0.6-1.9,0.6h0c-0.8,0-1.8-0.2-2.7-0.4c-0.8-0.2-1.6-0.3-2.4-0.4
				c0.1-0.3,0.3-0.7,0.9-1.3C279.2,243.4,279.6,243.3,280.3,243.3 M283.4,240.3l0.3,0c0.6,0,1.3,0,2,0.1c0.2,0,0.5,0,0.7,0
				c0.5,0,1,0.1,1.5,0.1c0.4,0,0.7,0,1-0.1c-0.1,0.3-0.3,0.9-0.9,1.6c-0.3,0.4-0.9,0.6-1.9,0.7l-0.1,0c-0.7,0-1.5,0-2.6-0.2
				l-0.4-0.1c-0.7-0.1-1.4-0.2-2-0.2c0-0.3,0.2-0.7,0.8-1.3C282.2,240.6,282.7,240.4,283.4,240.3 M286.2,237.1l0.4-0.1
				c0.6-0.1,1.4-0.1,2.3-0.1h0.5c1,0,1.8-0.1,2.5-0.2c-0.1,0.6-0.4,1.2-0.8,1.6c-0.3,0.4-0.9,0.7-1.8,0.8l0,0
				c-0.7,0.1-1.7,0.1-2.7,0c-0.8,0-1.6-0.1-2.4-0.1c0-0.3,0.1-0.8,0.7-1.4C285,237.5,285.5,237.3,286.2,237.1 M288.7,233.8l0.3-0.1
				c0.6-0.1,1.3-0.2,2-0.2c0.2,0,0.5,0,0.7-0.1c0.8-0.1,1.7-0.2,2.5-0.4c0,0.3-0.2,0.9-0.7,1.7c-0.3,0.4-0.8,0.8-1.7,0.9l0,0
				c-0.9,0.2-1.8,0.2-2.7,0.2l-0.4,0c-0.7,0-1.4,0-2,0.1c0-0.3,0.1-0.8,0.6-1.4C287.7,234.2,288.1,233.9,288.7,233.8 M293.8,223.7
				c0.2-0.4,0.5-0.8,1.1-1.1l0.4-0.2l0.3-0.2c0.6-0.3,1-0.3,1.8-0.5l0.4-0.1c1-0.2,1.8-0.5,2.4-0.8c0.1,0.5,0,1.1-0.4,1.8
				c-0.2,0.5-0.7,0.9-1.5,1.2l-0.1,0c-0.7,0.3-1.6,0.5-2.4,0.7c-0.8,0.2-1.6,0.4-2.3,0.6C293.4,225,293.4,224.5,293.8,223.7
				 M295.4,219.8c0.2-0.4,0.5-0.8,1.1-1.1l0.2-0.1l0.2-0.1c0.4-0.2,1-0.4,1.5-0.6c0.3-0.1,0.5-0.2,0.8-0.3c0.8-0.3,1.6-0.7,2.3-1.1
				c0.1,0.3,0.1,0.9-0.2,1.8c-0.1,0.5-0.5,1-1.3,1.4l-0.7,0.4c-0.5,0.2-1.1,0.4-1.9,0.6l-0.4,0.1c-0.7,0.2-1.4,0.4-2,0.6
				C295.1,221,295.1,220.5,295.4,219.8 M301,215.5L301,215.5L301,215.5c-0.8,0.4-1.6,0.8-2.2,1c-0.7,0.3-1.5,0.6-2.2,0.9
				c-0.1-0.3-0.2-0.8,0-1.5c0.1-0.2,0.2-0.4,0.3-0.6l0.8-0.9l4.4,0C301.9,214.8,301.6,215.1,301,215.5 M293.1,226.5l0.3-0.1l0,0
				c0.5-0.2,1.2-0.3,1.9-0.5c0.2-0.1,0.5-0.1,0.7-0.2c0.8-0.2,1.7-0.4,2.5-0.7c0,0.3,0,0.9-0.4,1.8c-0.2,0.5-0.7,0.9-1.6,1.2
				c-0.8,0.3-1.9,0.5-2.6,0.6l-0.4,0.1c-0.7,0.1-1.4,0.2-2,0.4c0-0.3,0-0.8,0.4-1.5C292.1,227.1,292.5,226.8,293.1,226.5
				 M291.1,230.2l0.4-0.1c0.6-0.2,1.4-0.3,2.2-0.4l0.4-0.1c1-0.1,1.8-0.3,2.5-0.5c0,0.5-0.1,1.1-0.5,1.7c-0.3,0.5-0.8,0.8-1.7,1.1
				l0,0c-0.8,0.2-1.7,0.3-2.7,0.4c-0.9,0.1-1.7,0.1-2.4,0.3c0-0.3,0-0.8,0.5-1.4C290,230.7,290.4,230.5,291.1,230.2 M206.2,247.3
				L206.2,247.3c0.1,0.7,0.2,1.5,0.2,2.4l0,0.4c0.1,1,0.2,1.8,0.3,2.5c-0.4,0-0.9-0.2-1.7-0.7c-0.5-0.3-0.8-0.9-0.9-1.8l0,0
				c-0.2-0.8-0.2-1.9-0.2-2.7v-0.4c0-0.7,0-1.4-0.1-2c0.3,0,0.8,0.1,1.4,0.6c0.3,0.3,0.6,0.7,0.8,1.4L206.2,247.3z M271.4,149.9
				L271.4,149.9c-0.2-0.7-0.3-1.6-0.4-2.5l0-0.3c-0.1-0.8-0.3-1.7-0.5-2.5c0.3,0,0.9,0.1,1.7,0.6c0.5,0.3,0.8,0.8,1,1.7l0,0
				c0.2,0.8,0.3,1.8,0.4,2.7c0,0.2,0,0.5,0,0.7c0,0.6,0.1,1.1,0.2,1.7c0,0,0,0-0.1,0c-0.3,0-0.7-0.1-1.4-0.5
				c-0.4-0.2-0.7-0.7-0.9-1.3L271.4,149.9z M267.9,148l-0.1-0.3c-0.2-0.6-0.4-1.4-0.6-2.3l-0.1-0.4c-0.2-1-0.4-1.7-0.7-2.4
				c0.5,0,1.1,0.1,1.7,0.4c0.5,0.2,0.9,0.8,1.2,1.6v0c0.3,0.8,0.4,1.8,0.6,2.6l0,0.4c0.1,0.7,0.2,1.4,0.3,2c-0.3,0-0.7,0-1.5-0.4
				C268.4,149.1,268.1,148.7,267.9,148 M263.9,145.8c-0.3-0.6-0.5-1.4-0.7-2.2l-0.1-0.4c-0.2-0.8-0.5-1.6-0.9-2.4c0.1,0,0.1,0,0.3,0
				c0.4,0,0.9,0.1,1.5,0.3c0.5,0.2,0.9,0.7,1.3,1.5l0,0c0.3,0.8,0.6,1.8,0.8,2.6c0,0.2,0.1,0.4,0.1,0.6c0.1,0.6,0.3,1.2,0.4,1.7
				c-0.1,0-0.2,0-0.3,0c-0.4,0-0.8-0.1-1.2-0.3c-0.4-0.2-0.7-0.6-1-1.2L263.9,145.8z M260,144.3c-0.3-0.6-0.6-1.3-0.9-2.1l-0.1-0.4
				c-0.3-0.9-0.7-1.6-1-2.3c0.5-0.1,1.1-0.1,1.8,0.1c0.5,0.2,1,0.7,1.4,1.4l0,0c0.4,0.7,0.7,1.6,0.9,2.5l0.1,0.4
				c0.2,0.7,0.4,1.3,0.6,1.9c-0.1,0-0.3,0.1-0.5,0.1c-0.3,0-0.7-0.1-1-0.2c-0.4-0.2-0.7-0.5-1.1-1.1L260,144.3z M256.1,143.3
				l-0.2-0.3c-0.3-0.5-0.6-1.2-0.9-1.8l-0.3-0.6c-0.4-0.8-0.8-1.6-1.2-2.3c0.2-0.1,0.4-0.1,0.7-0.1c0.3,0,0.7,0,1.1,0.1
				c0.5,0.1,1,0.5,1.5,1.3l0,0c0.4,0.7,0.8,1.6,1.1,2.4l0.2,0.5c0.2,0.6,0.5,1.2,0.7,1.8c-0.1,0-0.3,0.1-0.5,0.1
				c-0.3,0-0.6-0.1-1-0.2C256.8,144.2,256.5,143.8,256.1,143.3 M251.8,142c-0.4-0.5-0.8-1.2-1.2-2l-0.2-0.4
				c-0.5-0.9-0.9-1.6-1.3-2.1c0.5-0.2,1-0.2,1.8-0.1c0.5,0.1,1.1,0.5,1.6,1.2l0,0c0.5,0.7,0.9,1.6,1.3,2.4c0.3,0.7,0.7,1.5,1,2.1
				c-0.2,0.1-0.4,0.1-0.8,0.1c-0.2,0-0.5,0-0.7-0.1c-0.4-0.1-0.8-0.4-1.3-0.9L251.8,142z M247.6,141.4c-0.4-0.4-0.7-1-1.1-1.5
				c-0.2-0.2-0.3-0.5-0.5-0.7c-0.4-0.7-1-1.4-1.5-2.1c0.3-0.1,0.9-0.3,1.8-0.2c0.5,0,1,0.4,1.7,1.1c0.6,0.7,1.1,1.6,1.5,2.3l0.2,0.3
				c0.3,0.6,0.7,1.2,1,1.8c-0.2,0.1-0.5,0.2-0.9,0.2c-0.2,0-0.4,0-0.6-0.1c-0.5-0.1-0.9-0.3-1.3-0.8L247.6,141.4z M243.3,141
				c-0.5-0.5-0.9-1.1-1.4-1.8l-0.2-0.3c-0.5-0.6-1.1-1.4-1.7-2c0.3-0.2,0.8-0.4,1.8-0.3c0.6,0,1.1,0.3,1.7,0.9l0,0
				c0.6,0.6,1.1,1.4,1.6,2.2l0.1,0.1c0.4,0.6,0.8,1.3,1.3,1.8c-0.2,0.1-0.7,0.3-1.5,0.3c-0.5,0-0.9-0.3-1.4-0.8L243.3,141z
				 M239,140.9c-0.5-0.4-1-1-1.5-1.6l-0.3-0.4c-0.5-0.6-1.1-1.2-1.8-1.8c0.3-0.2,0.8-0.4,1.8-0.5c0.5,0,1.1,0.3,1.8,0.8l0,0
				c0.5,0.5,1.1,1.1,1.8,2l0.2,0.3c0.4,0.6,0.8,1.1,1.3,1.6c-0.2,0.2-0.6,0.4-1.3,0.4h-0.2c-0.5,0-1-0.2-1.5-0.6L239,140.9z
				 M234.8,141.2c-0.6-0.5-1.3-1.2-2-1.9c-0.6-0.6-1.3-1.2-1.9-1.7c0.3-0.2,0.8-0.5,1.7-0.6c0.6-0.1,1.2,0.2,1.8,0.7l0,0
				c0.7,0.5,1.4,1.3,1.9,1.9c0.2,0.2,0.4,0.4,0.6,0.6c0.3,0.4,0.7,0.8,1.1,1.1c-0.2,0.2-0.6,0.4-1.4,0.5c-0.5,0-0.9-0.1-1.5-0.5
				L234.8,141.2z M230.6,141.7L230.6,141.7c-0.6-0.4-1.2-0.9-1.8-1.5l-0.3-0.3c-0.7-0.6-1.4-1.1-2-1.5c0.4-0.3,0.9-0.6,1.6-0.7
				c0.6-0.1,1.2,0.1,1.9,0.6h0c0.7,0.4,1.3,1.1,2.1,1.8l0.3,0.3c0.5,0.5,1,1,1.5,1.4c-0.2,0.2-0.6,0.5-1.4,0.6
				c-0.4,0.1-0.9-0.1-1.5-0.4L230.6,141.7z M226.5,142.6L226.5,142.6c-0.6-0.3-1.2-0.8-1.8-1.2l-0.5-0.3c-0.6-0.5-1.4-1-2.1-1.4
				c0.2-0.2,0.7-0.6,1.6-0.8c0.5-0.2,1.1,0,1.9,0.4l0,0c0.7,0.4,1.5,1,2.2,1.6l0.5,0.4c0.5,0.4,0.9,0.8,1.4,1.1
				c-0.2,0.2-0.6,0.5-1.4,0.6c-0.4,0.1-0.9,0-1.5-0.3L226.5,142.6z M222.3,143.7c-0.6-0.3-1.3-0.7-2-1.2l-0.4-0.2
				c-0.8-0.5-1.5-0.9-2.2-1.2c0.3-0.4,0.8-0.7,1.5-1c0.5-0.2,1.2-0.1,2,0.3h0c0.7,0.3,1.5,0.9,2.3,1.5l0.1,0
				c0.6,0.5,1.3,0.9,1.9,1.3c-0.2,0.2-0.6,0.6-1.3,0.8c-0.4,0.1-0.9,0.1-1.6-0.2L222.3,143.7z M218.7,145.2L218.7,145.2l-0.3-0.1
				l0,0c-0.5-0.2-1.1-0.5-1.8-0.9c-0.2-0.1-0.4-0.2-0.7-0.4c-0.7-0.4-1.5-0.8-2.3-1.1c0.2-0.3,0.6-0.7,1.5-1.1
				c0.5-0.2,1.1-0.2,2,0.2l0,0c0.8,0.3,1.6,0.8,2.4,1.3l0.3,0.2c0.6,0.4,1.2,0.8,1.7,1.1c-0.2,0.2-0.5,0.6-1.3,0.8
				C219.8,145.5,219.3,145.4,218.7,145.2 M214.8,146.9l-0.3-0.1c-0.6-0.2-1.3-0.5-2.1-0.9l-0.4-0.2c-0.9-0.4-1.7-0.7-2.4-0.9
				c0.3-0.4,0.7-0.8,1.3-1.2c0.5-0.2,1.1-0.2,2,0h0c0.8,0.2,1.6,0.7,2.5,1.1c0.7,0.4,1.5,0.8,2.1,1.1c-0.1,0.3-0.5,0.6-1.2,1
				C215.9,147.1,215.5,147.1,214.8,146.9 M211,148.9l-0.3-0.1c-0.6-0.1-1.2-0.4-1.8-0.6c-0.2-0.1-0.5-0.2-0.7-0.3
				c-0.8-0.3-1.6-0.6-2.5-0.7c0.2-0.3,0.5-0.7,1.3-1.3c0.4-0.3,1.1-0.3,2-0.1h0c0.9,0.2,1.8,0.6,2.5,0.9l0.3,0.2
				c0.6,0.3,1.3,0.6,1.9,0.8c-0.1,0.3-0.4,0.7-1.1,1C212.2,149,211.7,149,211,148.9 M207.4,151.1l-0.4,0c-0.6-0.1-1.4-0.3-2.2-0.5
				l-0.4-0.1c-1-0.3-1.8-0.5-2.5-0.5c0.2-0.5,0.6-0.9,1.2-1.3c0.4-0.3,1.1-0.4,2-0.3l0,0c0.8,0.1,1.7,0.4,2.6,0.7
				c0.7,0.3,1.5,0.5,2.3,0.8c-0.1,0.3-0.4,0.7-1,1.1C208.6,151.1,208.1,151.2,207.4,151.1 M204.2,153.7l-0.5,0
				c-0.6-0.1-1.2-0.2-2-0.3c-0.2-0.1-0.5-0.1-0.7-0.1c-0.8-0.2-1.7-0.3-2.5-0.4c0.1-0.3,0.4-0.8,1.1-1.4c0.3-0.3,0.8-0.4,1.5-0.4
				c0.1,0,0.3,0,0.4,0l0,0c0.9,0.1,1.9,0.3,2.6,0.5l0.4,0.1c0.7,0.2,1.3,0.4,1.9,0.5c-0.1,0.3-0.3,0.7-1,1.2
				C205.2,153.5,204.8,153.7,204.2,153.7 M200.8,156.4l-0.4,0c-0.7,0-1.4-0.1-2.2-0.2l-0.4-0.1c-1-0.1-1.8-0.2-2.5-0.2
				c0.1-0.5,0.4-1,1-1.5c0.4-0.4,1-0.6,1.9-0.6h0c0.8,0,1.8,0.2,2.7,0.4c0.8,0.2,1.6,0.3,2.4,0.4c-0.1,0.3-0.3,0.7-0.9,1.3
				C202,156.2,201.5,156.3,200.8,156.4 M197.7,160L197.7,160L197.7,160z M197.7,159.3l-0.3,0c-0.6,0-1.3,0-2,0c-0.2,0-0.5,0-0.7,0
				c-0.5,0-1-0.1-1.5-0.1c-0.4,0-0.7,0-1,0.1c0.1-0.3,0.3-0.9,0.9-1.6c0.3-0.4,0.9-0.6,1.9-0.7l0.1,0c0.7,0,1.5,0,2.6,0.2l0.4,0
				c0.7,0.1,1.4,0.2,2,0.2c0,0.3-0.2,0.7-0.8,1.3C198.9,159.1,198.4,159.3,197.7,159.3 M194.9,162.5l-0.3,0.1
				c-0.7,0.1-1.5,0.1-2.3,0.1h-0.5c-1,0-1.8,0.1-2.5,0.2c0.1-0.6,0.4-1.2,0.8-1.6c0.3-0.4,0.9-0.7,1.8-0.8c0.7-0.1,1.8-0.1,2.7,0
				c0.8,0,1.6,0.1,2.4,0.1c0,0.3-0.1,0.8-0.7,1.4C196.1,162.2,195.6,162.4,194.9,162.5 M192.4,165.9l-0.3,0.1
				c-0.6,0.1-1.3,0.2-2,0.2c-0.2,0-0.5,0-0.7,0.1c-0.8,0.1-1.7,0.2-2.5,0.4c0-0.3,0.2-0.9,0.7-1.7c0.3-0.4,0.8-0.8,1.7-0.9l0,0
				c0.8-0.2,1.8-0.2,2.7-0.2l0.4,0c0.7,0,1.4,0,2-0.1c0,0.3-0.1,0.8-0.6,1.4C193.4,165.5,193,165.7,192.4,165.9 M187.3,175.9
				c-0.2,0.4-0.5,0.8-1.1,1.1l-0.4,0.2l-0.4,0.2c-0.6,0.2-1,0.3-1.8,0.5l-0.4,0.1c-1,0.2-1.8,0.5-2.4,0.8c-0.1-0.5,0-1.1,0.4-1.7
				c0.2-0.5,0.7-0.9,1.5-1.2l0.1,0c0.7-0.3,1.5-0.5,2.4-0.7c0.8-0.2,1.6-0.4,2.3-0.6C187.7,174.7,187.7,175.2,187.3,175.9
				 M185.7,179.9c-0.2,0.4-0.5,0.8-1.1,1.1l-0.2,0.1l-0.2,0.1c-0.4,0.2-1,0.4-1.5,0.6c-0.3,0.1-0.5,0.2-0.8,0.3
				c-0.8,0.3-1.6,0.7-2.3,1.1c-0.1-0.3-0.1-0.9,0.2-1.8c0.1-0.5,0.5-1,1.3-1.4l0.7-0.4c0.5-0.2,1.1-0.4,1.9-0.6l0.4-0.1
				c0.7-0.2,1.3-0.3,2-0.6C186,178.7,186,179.2,185.7,179.9 M180.3,184.1c0.7-0.4,1.4-0.7,2-0.9c0.7-0.3,1.5-0.6,2.2-0.9
				c0.1,0.3,0.2,0.8,0,1.5c0,0.1-0.1,0.2-0.2,0.3H180.3z M188,173.1l-0.3,0.1l-0.1,0c-0.5,0.2-1.2,0.3-1.9,0.5
				c-0.2,0.1-0.5,0.1-0.7,0.2c-0.8,0.2-1.7,0.4-2.5,0.7c0-0.3,0-0.9,0.4-1.8c0.2-0.5,0.7-0.9,1.6-1.2c0.8-0.3,1.9-0.5,2.6-0.6
				l0.4-0.1c0.7-0.1,1.4-0.2,2-0.4c0,0.3,0,0.8-0.4,1.5C189,172.6,188.6,172.9,188,173.1 M190,169.4l-0.3,0.1
				c-0.6,0.2-1.4,0.3-2.2,0.4L187,170c-1,0.1-1.8,0.3-2.5,0.5c0-0.5,0.1-1.1,0.5-1.7c0.3-0.5,0.8-0.8,1.6-1.1l0,0
				c0.8-0.2,1.7-0.3,2.7-0.4c0.9-0.1,1.7-0.1,2.4-0.3c0,0.3,0,0.8-0.5,1.4C191.1,168.9,190.7,169.2,190,169.4 M274.9,152.2
				c-0.1-0.7-0.2-1.5-0.2-2.3l0-0.4c-0.1-1-0.2-1.8-0.3-2.5c0.4,0,0.9,0.2,1.7,0.7c0.4,0.3,0.8,0.9,0.9,1.8v0
				c0.2,0.8,0.2,1.9,0.2,2.7l0,0.4c0,0.7,0,1.4,0,2c-0.3,0-0.8-0.1-1.4-0.6c-0.3-0.3-0.6-0.7-0.8-1.4L274.9,152.2z M276.7,146.7
				c-0.9-0.6-1.7-0.9-2.4-0.9c-0.1,0-0.2,0-0.2,0c-0.3-0.7-0.7-1.3-1.3-1.6c-1-0.6-2-0.8-2.7-0.7c-0.4-0.7-0.8-1.2-1.4-1.5
				c-1-0.5-2-0.6-2.7-0.5c-0.4-0.7-0.9-1.2-1.5-1.4c-1.1-0.4-2.1-0.5-2.7-0.3c-0.5-0.7-1-1.1-1.6-1.3c-1.1-0.4-2-0.4-2.8-0.1
				c-0.5-0.7-1.1-1.1-1.7-1.2c-0.5-0.1-1-0.2-1.4-0.2c-0.7,0-1.1,0.2-1.3,0.3c-0.6-0.6-1.2-0.9-1.8-1c-1.1-0.2-2-0.1-2.7,0.3
				c-0.6-0.6-1.3-0.9-1.9-1c-1.5-0.1-2.3,0.2-2.7,0.5c-0.6-0.5-1.2-0.8-1.9-0.8c-1.5-0.1-2.2,0.3-2.7,0.7c-0.6-0.4-1.3-0.7-1.9-0.7
				h-0.1c-1.4,0.1-2.2,0.5-2.6,0.9c-0.7-0.4-1.3-0.6-2-0.5c-1.5,0.2-2.2,0.7-2.6,1.1c-0.7-0.3-1.4-0.5-2-0.4
				c-1.4,0.3-2.1,0.8-2.5,1.3c-0.8-0.3-1.5-0.4-2.1-0.2c-1.5,0.4-2.1,1-2.4,1.4c-0.7-0.2-1.5-0.3-2.1-0.1c-1.1,0.4-1.8,0.9-2.3,1.6
				c-0.8-0.2-1.5-0.2-2.1,0.1c-1.4,0.6-1.9,1.3-2.1,1.8c-0.8-0.1-1.5,0-2,0.2c-1,0.5-1.7,1.2-2,1.9c-0.2,0-0.3,0-0.5,0
				c-0.6,0-1.2,0.1-1.6,0.4c-1.3,0.8-1.7,1.6-1.9,2.1c-0.8,0-1.5,0.2-2,0.5c-0.9,0.6-1.5,1.4-1.7,2.2c-0.9,0-1.5,0.3-2,0.7
				c-1.2,1-1.5,1.8-1.5,2.3c-0.8,0.1-1.4,0.4-1.9,0.8c-0.8,0.8-1.3,1.6-1.4,2.4c-0.8,0.2-1.5,0.5-1.8,0.9c-1,1.2-1.2,2-1.2,2.5
				c-0.8,0.2-1.4,0.6-1.8,1.1c-0.7,0.9-1,1.8-1,2.6c-0.8,0.3-1.4,0.7-1.7,1.2c-0.9,1.4-0.9,2.2-0.8,2.6c-0.7,0.3-1.3,0.8-1.6,1.3
				c-0.6,1-0.8,1.9-0.6,2.7c-0.7,0.4-1.3,0.9-1.5,1.4c-0.6,1.4-0.6,2.3-0.4,2.8c-0.6,0.4-1.1,0.8-1.3,1.4c-0.5,1.1-0.6,2.1-0.3,2.9
				l0,0c-0.7,0.5-1.1,1-1.3,1.6c-0.5,1.6-0.2,2.5,0,2.9l0,0h-3.3c2.8-11.8,8.8-22.6,17.6-31.4c12.6-12.6,29.3-19.5,47.1-19.5
				c17.8,0,34.5,6.9,47.1,19.5c8.8,8.8,14.8,19.6,17.6,31.4h-2.3v0c-0.4-1.4-0.9-2.1-1.4-2.4c0.3-0.7,0.3-1.4,0.1-2.1
				c-0.5-1.4-1.1-2-1.5-2.3c0.2-0.8,0.2-1.5-0.1-2.1c-0.5-1.3-1.2-1.9-1.7-2.2c0.2-0.8,0.1-1.5-0.2-2.1c-0.7-1.4-1.4-1.9-1.9-2
				c0.1-0.8,0-1.5-0.3-2c-0.7-1.2-1.5-1.7-2-1.9c0-0.8-0.1-1.5-0.5-2c-0.9-1.3-1.7-1.6-2.2-1.8c0-0.8-0.2-1.4-0.6-1.9
				c-0.9-1.1-1.7-1.5-2.3-1.6c-0.1-0.8-0.3-1.5-0.8-1.9c-1.1-1.1-1.9-1.4-2.4-1.4c-0.2-0.8-0.4-1.4-0.9-1.9c-1-1-1.9-1.2-2.5-1.2
				c-0.2-0.8-0.5-1.4-1-1.8c-1.2-1-2-1.1-2.6-1.1C277.6,147.7,277.2,147.1,276.7,146.7 M301.5,184.1h-1.6c0.3-0.4,0.6-0.9,0.9-1.4
				C301,182.9,301.3,183.4,301.5,184.1 M278.3,154.9L278.3,154.9c-0.1-0.8-0.1-1.6-0.1-2.5l0-0.3c0-0.8,0-1.7-0.1-2.6
				c0.3,0,0.9,0.2,1.6,0.8c0.4,0.3,0.7,0.9,0.8,1.8l0,0c0.1,0.9,0,1.8,0,2.7c0,0.2,0,0.5-0.1,0.7c0,0.6-0.1,1.2-0.1,1.7
				c-0.3,0-0.7-0.2-1.3-0.7c-0.3-0.3-0.6-0.8-0.7-1.4L278.3,154.9z M281.4,157.7c0-0.7,0-1.4,0.1-2.3l0-0.4c0.1-1,0.1-1.8,0-2.5
				c0.4,0.1,0.9,0.3,1.6,0.9c0.4,0.4,0.6,1,0.7,1.9v0c0,0.8-0.1,1.8-0.2,2.7l0,0.3c-0.1,0.7-0.2,1.4-0.3,2.1c-0.3,0-0.7-0.2-1.3-0.8
				c-0.3-0.3-0.5-0.8-0.6-1.5L281.4,157.7z M284.6,158.5l0.1-0.4c0.1-0.8,0.2-1.7,0.2-2.6c0.3,0.1,0.8,0.3,1.5,1
				c0.4,0.4,0.6,1,0.5,1.9v0c0,0.9-0.2,1.8-0.4,2.7c0,0.2-0.1,0.5-0.2,0.7c-0.1,0.6-0.3,1.2-0.3,1.7c-0.3-0.1-0.7-0.3-1.2-0.9
				c-0.3-0.3-0.4-0.8-0.5-1.5l0-0.3C284.4,160.1,284.5,159.3,284.6,158.5 M287.1,164.1c0.1-0.7,0.2-1.4,0.4-2.3l0.1-0.4
				c0.2-1,0.3-1.8,0.4-2.5c0.5,0.2,1,0.5,1.4,1.1c0.3,0.4,0.5,1.1,0.4,1.9l0,0c-0.1,0.8-0.3,1.7-0.6,2.6l-0.1,0.3
				c-0.2,0.7-0.4,1.4-0.5,2c-0.3-0.1-0.7-0.3-1.2-1c-0.2-0.4-0.3-0.8-0.3-1.5L287.1,164.1z M289.5,167.9l0-0.4
				c0.1-0.7,0.4-1.4,0.6-2.2l0.1-0.4c0.2-0.8,0.5-1.7,0.6-2.5c0.3,0.1,0.8,0.5,1.3,1.2c0.3,0.4,0.4,1.1,0.2,2v0
				c-0.1,0.8-0.5,1.8-0.8,2.6c-0.1,0.2-0.2,0.4-0.2,0.6c-0.2,0.6-0.4,1.1-0.6,1.6c-0.3-0.1-0.7-0.4-1.1-1.1
				C289.5,169,289.4,168.5,289.5,167.9 M291.7,171.5l0-0.2l0,0c0.1-0.7,0.4-1.4,0.8-2.2l0.1-0.4c0.4-0.9,0.6-1.7,0.8-2.4
				c0.4,0.2,0.9,0.6,1.2,1.3c0.3,0.5,0.3,1.1,0.1,2l0,0c-0.2,0.8-0.6,1.7-1,2.5l-0.2,0.3c-0.3,0.6-0.6,1.3-0.8,1.9
				c-0.3-0.1-0.7-0.4-1-1.1C291.6,172.7,291.5,172.2,291.7,171.5 M293.6,175.3L293.6,175.3L293.6,175.3l0.1-0.3l0,0
				c0.2-0.7,0.6-1.4,0.9-2.2l0.2-0.3c0.3-0.7,0.7-1.6,0.9-2.4c0.3,0.2,0.7,0.6,1.1,1.4c0.3,0.5,0.2,1.1,0,2l0,0
				c-0.3,0.8-0.7,1.7-1.1,2.5c-0.1,0.2-0.2,0.4-0.4,0.6c-0.3,0.5-0.6,1-0.8,1.5c-0.2-0.1-0.6-0.5-0.9-1.2
				C293.4,176.5,293.4,176,293.6,175.3 M295.2,179.2l0.1-0.2l0-0.1c0.2-0.6,0.6-1.3,1.1-2l0.2-0.4c0.5-0.9,0.8-1.6,1.1-2.3
				c0.3,0.2,0.7,0.7,1,1.5c0.2,0.5,0.1,1.2-0.2,2l0,0c-0.3,0.7-0.8,1.5-1.3,2.3l-0.2,0.3c-0.4,0.6-0.8,1.2-1.1,1.7
				c-0.2-0.2-0.6-0.5-0.8-1.3C294.9,180.4,295,179.9,295.2,179.2 M296.5,183.2l0.1-0.3c0.4-0.7,0.9-1.4,1.4-2.3
				c0.5-0.7,0.9-1.5,1.3-2.2c0.2,0.2,0.6,0.7,0.9,1.6c0.2,0.5,0.1,1.2-0.3,1.9l0,0c-0.4,0.7-0.9,1.5-1.4,2.2h-2.3
				C296.3,183.8,296.4,183.5,296.5,183.2 M315.6,146.8c0.7-0.3,1.2-0.5,1.5-0.7c0.4-0.3,0.7-0.6,1-1.1l0,0c1.5-0.1,2.2-0.1,2.3-0.1
				l2.5,3.9c0,0-0.1,0.3-0.4,0.8c0,0-0.2,0.4-0.6,1.2c-0.6,0-1.1,0.2-1.5,0.4c-0.2,0.1-0.5,0.4-1.1,1c-4.5,4.4-6.9,6.6-7.1,6.9
				c-0.4,0.5-0.7,1-0.8,1.5c0,0.2,0,0.2,0,0.2c-1.5,0.5-2.2,0.8-2.2,0.8l-1.5-2.3c0,0,0.3-0.5,0.9-1.3c0.4-0.5,0.5-0.8,0.6-0.8
				c0.3,0,0.6,0,0.9-0.2c0.2-0.2,0.5-0.4,0.8-0.8l0.3-0.2l-0.4-0.6c-0.4-0.6-1-1.6-1.7-2.7c-0.8,0.3-1.2,0.5-1.2,0.5l0,0
				c-0.3,0.2-0.5,0.4-0.6,0.7c-1.7,0.3-2.5,0.5-2.5,0.5l-1.5-2.3c0,0,0.2-0.3,0.7-0.8c0.2-0.2,0.5-0.5,0.9-1
				c0.4,0.1,0.6,0.1,0.8,0.1c0.3,0,0.7-0.1,1.1-0.2C306.7,150.3,309.7,149.1,315.6,146.8 M303.7,128.8
				C303.7,128.8,303.7,128.8,303.7,128.8l2-1.1l2.4,2.4c0,0-0.2,0.5-0.7,1.4c-2.9,6.3-4.3,9.4-4.4,9.4l0,0l5.3-5.1
				c0.2-0.2,0.4-0.6,0.6-1.2c0-0.2,0.1-0.4,0.1-0.5l2-1l2.1,2.2c0,0,0,0.1-0.2,0.3c-0.6,1.1-0.9,1.7-0.9,1.7c-0.5,0-1,0.1-1.3,0.3
				c-0.2,0.1-0.4,0.2-0.4,0.3l-7.9,7.7c-0.2,0.2-0.3,0.5-0.5,1c-0.1,0.3-0.1,0.5-0.1,0.6l-2,1l-2.3-2.4c0,0,0.2-0.5,0.6-1.3
				c0.7-1.6,2.2-4.8,4.4-9.5l0,0l-4.6,4.4c-0.6,0.6-0.9,1-1,1.3c-0.1,0.2-0.2,0.6-0.3,1.1l-2.1,1l-2.2-2.2c0,0,0.1-0.3,0.5-1
				c0.4-0.7,0.5-1,0.6-1.1c0.6,0,1.1-0.2,1.6-0.5c0.4-0.3,0.7-0.5,0.9-0.8l7-6.8C303.4,130.2,303.6,129.6,303.7,128.8 M295.1,122.1
				c0,0,0.6-0.5,1.8-1.3l2.5,1.9c0,0-0.1,0.4-0.4,1.2c-0.2,0.5-0.3,0.8-0.3,1c-0.4,0.1-0.8,0.2-1.1,0.4c-0.3,0.2-0.5,0.4-0.6,0.6
				l-6.4,8.5c-0.4,0.5-0.6,1.2-0.5,1.9l0,0c0,0-0.6,0.4-1.8,1.3l0,0l-2.5-1.9c0,0,0.1-0.3,0.3-0.8c0.2-0.7,0.4-1.2,0.5-1.4
				c0.4-0.1,0.7-0.2,1-0.4c0.3-0.2,0.5-0.3,0.6-0.5l6.6-8.7c0.2-0.3,0.4-0.8,0.4-1.4C295.1,122.3,295.1,122.2,295.1,122.1
				 M272.8,127c0.1-0.7,0.2-1.1,0.3-1.3c0.7-0.3,1.2-0.7,1.5-1.2l5-9.2c0.3-0.6,0.4-1.2,0.2-1.9c0,0,0.6-0.5,1.6-1.5l0,0l7.1,3.9
				c0.9,2.1,1.4,3.1,1.4,3.2c-0.6,0.2-1,0.5-1.2,0.9c-0.7,1.3-1.2,2.2-1.5,2.8l-0.2,0.4c-0.2,0.4-0.3,0.8-0.1,1c0,0.1,0,0.1,0,0.1
				c-2.5,0.7-3.8,1-3.8,1c-0.3,2.4-0.5,3.8-0.5,4.2c0,0.7,0.1,1.3,0.5,1.9c-0.8,1.1-1.2,1.7-1.2,1.8l-2.6-1.4c0-0.3,0-0.9,0-1.9
				c0-0.1,0-0.2,0-0.2c0.2-0.1,0.3-0.2,0.4-0.4l0.1-0.1c0.1-0.2,0.2-0.8,0.3-1.8l0.5-3.7l-1.3-0.7l-1.8,3.3
				c-0.2,0.4-0.3,0.8-0.3,1.3c0,0.2,0.1,0.4,0.1,0.6l-1.6,1.5l-2.7-1.5C272.6,127.9,272.7,127.6,272.8,127 M257.5,121.7
				c0-0.3,0-0.7,0.1-1.3c0.3-0.2,0.5-0.3,0.7-0.4c0.3-0.2,0.5-0.5,0.7-0.8c0.1-0.1,1.6-3,4.7-8.5c0.4-0.7,0.6-1.2,0.7-1.5
				c0.1-0.4,0.2-0.9,0-1.5v0c1.1-1,1.6-1.5,1.7-1.6l4.4,1.4c0,0,0.1,0.3,0.2,0.9c0,0,0.1,0.5,0.3,1.3c-0.4,0.4-0.7,0.8-0.8,1.3
				c-0.1,0.2-0.1,0.7-0.2,1.5c-0.7,6.2-1,9.5-1,9.8c0,0.6,0.1,1.2,0.3,1.7c0.1,0.1,0.1,0.2,0.1,0.2c-0.8,1.3-1.2,2-1.2,2l-2.6-0.8
				c0,0-0.1-0.6-0.1-1.6c0-0.6-0.1-0.9-0.1-1c0.3-0.2,0.4-0.4,0.5-0.7c0.1-0.3,0.1-0.6,0.1-1.1l0.1-0.3l-0.7-0.2
				c-0.7-0.2-1.8-0.5-3.1-1c-0.4,0.8-0.6,1.2-0.6,1.2l0,0c-0.1,0.3-0.1,0.6,0,0.9c-1,1.3-1.6,2-1.6,2l-2.6-0.8
				C257.4,122.8,257.5,122.4,257.5,121.7 M238.1,117.3c0-0.2,0.1-0.3,0.1-0.3l0.8-10.6c0-0.6-0.2-1.2-0.6-1.9v0l0.8-2.1l3.1,0.2
				c0,0,0.1,0.2,0.2,0.7c0,0.1,1.1,3.8,3.3,11h0c0,0,1.6-3.5,4.9-10.5c0.2-0.4,0.3-0.6,0.3-0.6l3.1,0.2c0,0,0.2,0.7,0.5,2.2
				c-0.5,0.5-0.8,1.1-0.9,1.8l-0.8,10.6c0,0.3,0.1,0.8,0.3,1.3c0.1,0.2,0.2,0.3,0.3,0.5v0l-0.8,2.1l0,0l-3.1-0.2
				c0,0-0.1-0.2-0.1-0.5c0-0.1-0.2-0.7-0.4-1.7c0.3-0.3,0.6-0.7,0.7-1c0.1-0.2,0.2-0.6,0.2-1.4l0.4-5.5h0l-2.6,5.8
				c-0.1,0.3-0.2,0.6-0.2,0.8l0,0c0,0.5,0.1,0.9,0.3,1.2v0c-0.6,1.3-0.9,2-0.9,2l-3.4-0.2c0,0-0.1-0.2-0.1-0.5
				c-0.3-0.9-0.4-1.5-0.5-1.7c0.3-0.3,0.5-0.6,0.5-1.2c0-0.4-0.1-1-0.3-1.8c-1-3.3-1.5-5.1-1.5-5.2l0,0l-0.4,5.3
				c-0.1,0.9-0.1,1.4,0,1.5c0,0.3,0.2,0.7,0.6,1.2l-0.8,2.1l0,0l-3.1-0.2c0,0-0.1-0.3-0.2-0.8c-0.2-0.7-0.3-1.2-0.3-1.4
				C237.7,118.2,237.9,117.8,238.1,117.3 M211.4,106.8l4.4-1.2c0,0,0.2,0.2,0.6,0.6c0,0,0.3,0.4,0.9,1c-0.1,0.6-0.2,1.1,0,1.5
				c0,0.2,0.3,0.6,0.6,1.3c2.8,5.6,4.3,8.5,4.4,8.8c0.3,0.5,0.7,0.9,1.2,1.2c0.1,0.1,0.2,0.1,0.2,0.1c0.1,1.6,0.1,2.3,0.1,2.4
				l-2.7,0.7c0,0-0.3-0.4-1-1.3c-0.4-0.5-0.6-0.7-0.6-0.8c0.1-0.3,0.1-0.6,0.1-0.9c-0.1-0.3-0.2-0.6-0.5-1l-0.1-0.3l-0.7,0.2
				c-0.7,0.2-1.8,0.5-3.1,0.8c0.1,0.9,0.1,1.3,0.1,1.3l0,0c0.1,0.3,0.3,0.6,0.5,0.8c-0.2,1.7-0.3,2.5-0.3,2.5l-2.6,0.7
				c0,0-0.2-0.3-0.5-0.9c-0.1-0.2-0.3-0.6-0.6-1.2c0.2-0.3,0.3-0.5,0.3-0.7c0.1-0.3,0.2-0.7,0.2-1.1c0-0.2-0.2-3.4-0.7-9.7
				c0-0.8-0.1-1.3-0.2-1.6c-0.1-0.4-0.4-0.9-0.8-1.3l0,0C211.2,107.6,211.4,106.9,211.4,106.8 M192.3,115.3l9.3-4.6
				c0.1,0.1,1.3,0.9,3.5,2.6c-0.7,1.1-1.1,1.7-1.1,1.7c-0.4-0.2-0.8-0.4-1.3-0.6c-0.5-0.1-0.9-0.2-1.2-0.2c-0.4,0-0.8,0.1-1.1,0.3
				l-0.9,0.4l5,10.2c0.3,0.6,0.8,1,1.5,1.3c0.2,1.4,0.3,2.2,0.3,2.3l0,0l-2.7,1.3c0,0-0.3-0.3-0.8-0.8c-0.1-0.1-0.4-0.4-0.8-0.8
				c0.2-0.7,0.2-1.4-0.1-1.9l-5-10.2l-0.9,0.5c-0.6,0.3-1.1,0.8-1.4,1.6c-0.2,0.5-0.3,1-0.4,1.5l0,0c-0.3,0-0.9-0.1-1.9-0.2
				c-0.1,0-0.1,0-0.1,0C192.2,116.8,192.3,115.4,192.3,115.3 M183,121.1c0,0,0.2,0.1,0.7,0.5c0.1,0.1,0.5,0.4,1.2,0.9
				c-0.1,0.7,0,1.4,0.5,2.1c0,0,0.1,0.2,0.4,0.6l6.1,8.8l1.9-1.3c0.6-0.4,1-1,1.2-1.8c0.1-0.6,0.2-1.1,0.1-1.5l0,0
				c0.3,0,0.9,0,1.9-0.1c0.1,0,0.1,0,0.1,0c0.4,2.7,0.5,4.2,0.5,4.4l-6.7,4.6c0,0-0.3-0.2-0.9-0.7c-0.1-0.1-0.4-0.3-0.9-0.7
				c0.1-0.8,0-1.4-0.4-1.9l-5.8-8.5c-0.5-0.7-1.1-1.1-1.8-1.3l0,0l-0.7-2.2L183,121.1z M169.2,133.2l3.8-3.8c0.1,0,0.4,0.1,1,0.3
				c0.1,0,1.1,0.4,3.2,1c-0.3,1.3-0.5,2-0.5,2c-0.5-0.1-1-0.1-1.5-0.1c-0.2,0-0.5,0.1-0.7,0.1c-0.6,0.2-1,0.4-1.3,0.7l-1.6,1.7
				l1.1,1.1c0.5,0.5,1.3,1.3,2.3,2.3l1.8-1.9c0,0,0.3,0.1,0.7,0.4c0,0,0.6,0.4,1.9,1.2v0l-2.3,2.3l0.7,0.6c0.7,0.6,1.6,1.5,2.7,2.7
				l1.7-1.7c0.4-0.4,0.6-0.9,0.8-1.6c0-0.6,0-1,0-1.4l-0.1-0.6c0.3-0.1,0.9-0.2,1.9-0.4c0.1,0,0.2,0,0.2,0l1.3,4.2
				c-1.2,1.3-2.2,2.2-2.8,2.9l-2.9,2.9c0,0-0.2-0.1-0.5-0.2c-0.4-0.2-0.9-0.4-1.6-0.8c0-0.5-0.1-0.8-0.3-1.1
				c-0.1-0.3-0.3-0.5-0.5-0.7l-7.5-7.5c-0.5-0.5-1.1-0.7-1.8-0.8c0,0-0.1,0-0.1,0l-1-2C168.2,134.3,168.8,133.6,169.2,133.2
				 M161,143.5c0.1,0,1.5-0.2,4.2-0.4l0,0c0.2,0.6,0.4,1,0.7,1.2l7.8,5.3c0.2,0.2,0.6,0.2,1.2,0.2c0,0,0.1,0,0.2,0l0,0
				c0.7,2.6,1.1,3.9,1.1,4.1l-4.5,6.7c0,0-0.2-0.1-0.7-0.2c-0.9-0.2-1.4-0.4-1.5-0.4c-0.2-0.5-0.4-1-0.6-1.2
				c-0.1-0.2-0.3-0.3-0.4-0.4l-8.8-6c-0.4-0.3-0.9-0.4-1.5-0.4c-0.2,0-0.3,0-0.3,0c-0.1-0.1-0.5-0.7-1.4-1.8l0,0L161,143.5z
				 M240.1,127.4c34.6,0,63.4,24.2,70.6,56.6H308c-7.1-30.9-34.8-53.9-67.8-53.9s-60.7,23-67.8,53.9h-2.8
				C176.7,151.7,205.6,127.4,240.1,127.4 M185.5,184.1c0.3-1.2,0.1-1.9-0.1-2.4l0.1-0.1c0.6-0.4,0.9-0.8,1.1-1.3
				c0.6-1.2,0.4-2,0.2-2.5l0.2-0.1l0.2-0.1c0.6-0.4,0.9-0.8,1.1-1.3c0.5-1.1,0.4-1.9,0.3-2.3l0.3-0.1c0.6-0.3,1-0.7,1.3-1.2
				c0.6-1.1,0.6-1.8,0.5-2.3l0.3-0.1c0.7-0.3,1.1-0.7,1.4-1.1c0.7-1,0.7-1.8,0.6-2.3l0.2,0l0.1,0c0.6-0.2,1.1-0.6,1.4-1
				c0.8-1,0.8-1.8,0.8-2.2l0.3-0.1c0.7-0.2,1.2-0.5,1.5-0.9c0.8-0.9,0.9-1.6,0.9-2.1h0.2l-0.1-0.1l0.2,0c0.7-0.1,1.2-0.4,1.6-0.8
				c0.9-0.8,1.1-1.6,1.1-2.1l0.3,0c0.7-0.1,1.2-0.3,1.6-0.7c0.9-0.8,1.2-1.6,1.2-2l0.3,0c0.7,0,1.2-0.2,1.7-0.6
				c1-0.7,1.3-1.4,1.4-1.9l0.3,0c0.7,0,1.2-0.1,1.7-0.4c1-0.7,1.4-1.4,1.5-1.8l0.3,0.1c0.1,0,0.2,0,0.3,0c0.5,0,1-0.1,1.4-0.3
				c1.1-0.5,1.5-1.2,1.7-1.7l0.3,0.1c0.2,0,0.4,0.1,0.6,0.1c0.4,0,0.8-0.1,1.1-0.2c1.1-0.5,1.6-1.2,1.8-1.6l0.3,0.1
				c0.3,0.1,0.6,0.1,0.8,0.1c0.3,0,0.7-0.1,0.9-0.2c1.2-0.4,1.7-1,1.9-1.5l0.3,0.1c0.4,0.1,0.8,0.2,1.1,0.2c0.2,0,0.5,0,0.7-0.1
				c1.2-0.3,1.7-0.9,2-1.3l0.3,0.1c0.4,0.2,0.8,0.2,1.2,0.2c0.2,0,0.4,0,0.5-0.1c1.2-0.2,1.8-0.8,2.1-1.2l0.3,0.1
				c0.5,0.2,1,0.3,1.5,0.3c0.1,0,0.2,0,0.3,0c1.2-0.1,1.8-0.6,2.1-1l0.2,0.2c0.5,0.3,1,0.5,1.5,0.5c0.1,0,0.1,0,0.2,0
				c1.2-0.1,1.8-0.5,2.2-0.8l0.2,0.2c0.5,0.4,1.1,0.5,1.7,0.6c0.1,0,0.1,0,0.2,0c1.1,0,1.7-0.4,2.1-0.7l0.2,0.2
				c0.5,0.4,1.1,0.7,1.6,0.7c0.1,0,0.3,0,0.4,0c0.8,0,1.4-0.2,1.9-0.6l0.2,0.2c0.5,0.5,1,0.7,1.6,0.8c0.3,0.1,0.5,0.1,0.8,0.1
				c0.8,0,1.2-0.2,1.6-0.5l0.2,0.2c0.5,0.5,1,0.8,1.5,0.9c0.3,0.1,0.7,0.1,1,0.1c0.6,0,1-0.2,1.3-0.3l0.2,0.2c0.4,0.5,0.9,0.9,1.4,1
				c0.4,0.1,0.9,0.2,1.3,0.2c0.4,0,0.8-0.1,1.1-0.2l0.2,0.2c0.5,0.6,0.9,0.9,1.4,1.1c0.5,0.2,1,0.3,1.4,0.3c0.3,0,0.6-0.1,0.9-0.2
				l0.2,0.3c0.4,0.6,0.8,1,1.3,1.2c0.6,0.3,1.1,0.4,1.7,0.4h0c0.2,0,0.4-0.1,0.7-0.1l0.2,0.3c0.3,0.6,0.7,1,1.2,1.3
				c0.6,0.4,1.2,0.5,1.8,0.5c0.2,0,0.3,0,0.5-0.1l0.1,0.3c0.3,0.6,0.6,1.1,1.1,1.4c0.7,0.5,1.3,0.7,1.9,0.7c0.1,0,0.2,0,0.3,0
				l0.1,0.3c0.2,0.7,0.6,1.1,1,1.5c0.8,0.7,1.6,0.8,2.1,0.8c0,0,0.1,0,0.1,0l0.1,0.3c0.2,0.7,0.5,1.2,0.9,1.5c0.9,0.8,1.6,1,2.1,1h0
				l0.1,0.3c0.2,0.7,0.4,1.2,0.8,1.6c0.8,0.9,1.6,1.1,2.1,1.1l0,0.3c0.1,0.7,0.3,1.2,0.7,1.6c0.6,0.7,1.3,1.2,2,1.3l0,0.3
				c0,0.7,0.2,1.3,0.5,1.7c0.7,1,1.4,1.3,1.9,1.4l0,0.3c0,0.7,0.1,1.2,0.4,1.7c0.6,1,1.3,1.4,1.8,1.5l0,0.3c0,0.7,0,1.3,0.3,1.7
				c0.5,1,1.2,1.5,1.6,1.6l0,0.3c-0.1,0.7-0.1,1.2,0.2,1.8c0.4,0.9,0.9,1.5,1.5,1.8l-0.1,0.3c-0.1,0.7-0.1,1.3,0,1.8
				c0.4,1.1,1,1.7,1.4,1.9l-0.1,0.3c-0.1,0.3-0.1,0.5-0.2,0.8h-7.9v-11.1l-2.6-1.3c-3.4-1.7-6.7-3.8-9.3-6.7
				c-1.3-1.4-2.4-2.8-3.4-4.4c-1-1.6-1.5-3.4-2-5.2c-0.1-0.5-0.3-1-0.4-1.5l-9-2.9c-6.5-2.1-13.2-2.9-20-2.9H240
				c-6.8,0-13.5,0.6-20.1,2.7l-9,2.9c-0.1,0.5-0.3,1-0.4,1.5c-0.5,1.8-1.1,3.6-2,5.2c-0.9,1.6-2.1,3-3.4,4.4
				c-2.6,2.8-5.9,4.9-9.3,6.7l-2.6,1.3v11.3H185.5z M283.5,175.3V219c-0.6,2.5-1.3,4.4-2.2,6.2l0,0l0,0c-0.8,1.7-1.7,3.2-2.6,4.5
				c-0.9,1.4-2.1,2.7-3.4,4c-4.5,4.4-9.6,7.4-16.5,10.8c-2.1,1-4.2,1.1-7.1,1.1h-0.4l-0.4,0c-1.9,0-5,0-7.7,2.6
				c-0.5,0.5-0.9,0.9-1.2,1.3c-0.1,0.1-0.2,0.3-0.3,0.4c-0.3,0.1-0.8,0.1-1.4,0.1c-0.8,0-1.4-0.1-1.6-0.2c-0.1-0.1-0.3-0.3-0.4-0.5
				c-0.5-0.6-1.1-1.5-2.1-2.2c-2.4-1.6-4.4-1.8-6.3-1.8c-0.3,0-0.7,0-1,0c-0.3,0-0.7,0-1,0h-0.2c-2.8,0-4.2-0.2-6.1-1.1
				c-6.9-3.4-12-6.4-16.5-10.8c-1.3-1.3-2.4-2.6-3.4-4c-0.9-1.3-1.8-2.8-2.6-4.5l0,0l0,0c-0.9-1.8-1.6-3.6-2.2-6.2v-43.7
				c0.2-0.1,0.4-0.2,0.5-0.3l0,0c4.4-2.2,7.8-4.6,10.4-7.5c1.7-1.8,2.9-3.4,3.9-5c1.1-1.8,1.7-3.7,2.3-5.7l7-2.3
				c5.4-1.7,11.4-2.6,18.9-2.6l0.5,0h0h0c6.9,0,13.1,0.9,18.9,2.8l7,2.3c0.5,1.7,1.1,3.7,2.3,5.7c1,1.6,2.2,3.3,3.9,5
				c2.6,2.8,6,5.3,10.4,7.5l0,0C283.1,175.1,283.3,175.2,283.5,175.3 M195.8,226.7c0.8,1.7,1.8,3.4,2.9,4.9c1.1,1.6,2.4,3.1,3.8,4.5
				c5.1,5.1,11.1,8.3,17.5,11.5c2.7,1.3,4.9,1.5,7.7,1.5h0.2c0.7,0,1.4,0,2.1,0c1.4,0,2.7,0.2,4.2,1.2c1,0.7,1.5,2.1,2.6,2.7
				c0.9,0.5,2.3,0.8,3.6,0.8c1.1,0,2.2-0.2,2.9-0.4c0.1,0,0.2-0.1,0.3-0.2c0.9-0.5,1.4-1.6,2.2-2.3c1.5-1.4,3.2-1.5,5-1.5h0.8
				c3,0,5.9-0.1,8.8-1.5c6.4-3.2,12.3-6.4,17.5-11.5c1.4-1.4,2.7-2.9,3.8-4.5c1.1-1.6,2-3.2,2.9-4.9c1.3-2.4,2-4.8,2.6-7.5v-5l9.1,0
				l-0.4,0.4c-0.2,0.2-0.3,0.5-0.4,0.7c-0.3,1.2-0.1,1.9,0.1,2.4l-0.1,0.1c-0.6,0.4-0.9,0.8-1.2,1.3c-0.6,1.2-0.4,2-0.2,2.5
				l-0.2,0.1l-0.2,0.1c-0.6,0.4-0.9,0.8-1.1,1.3c-0.5,1.1-0.4,1.9-0.3,2.3l-0.3,0.1c-0.6,0.3-1,0.7-1.3,1.2
				c-0.6,1.1-0.6,1.8-0.5,2.3l-0.3,0.1c-0.7,0.3-1.1,0.7-1.4,1.1c-0.7,1-0.7,1.8-0.6,2.3l-0.2,0l-0.1,0c-0.6,0.2-1.1,0.6-1.4,1
				c-0.8,1-0.8,1.8-0.8,2.2l-0.3,0.1c-0.7,0.2-1.2,0.5-1.5,0.9c-0.8,0.9-0.9,1.7-0.9,2.2l-0.3,0.1c-0.7,0.1-1.2,0.4-1.6,0.8
				c-0.9,0.8-1.1,1.6-1.1,2.1l-0.3,0c-0.7,0.1-1.2,0.3-1.6,0.7c-0.9,0.8-1.2,1.6-1.2,2l-0.3,0c-0.7,0-1.2,0.2-1.7,0.6
				c-1,0.7-1.3,1.4-1.4,1.9l-0.3,0c-0.7,0-1.2,0.1-1.7,0.4c-1,0.7-1.4,1.4-1.5,1.8l-0.3-0.1c-0.1,0-0.2,0-0.3,0
				c-0.5,0-1,0.1-1.4,0.3c-1.1,0.5-1.5,1.2-1.6,1.7l-0.3-0.1c-0.2,0-0.4-0.1-0.6-0.1c-0.4,0-0.8,0.1-1.1,0.2
				c-1.1,0.5-1.6,1.2-1.8,1.6l-0.3-0.1c-0.3-0.1-0.6-0.1-0.8-0.1c-0.3,0-0.7,0.1-0.9,0.2c-1.2,0.4-1.7,1-1.9,1.5l-0.3-0.1
				c-0.4-0.1-0.8-0.2-1.1-0.2c-0.2,0-0.5,0-0.7,0.1c-1.2,0.3-1.7,0.9-2,1.3l-0.3-0.1c-0.4-0.2-0.8-0.3-1.2-0.3c-0.2,0-0.4,0-0.6,0.1
				c-1.2,0.2-1.8,0.8-2.1,1.2l-0.3-0.1c-0.5-0.2-1-0.3-1.4-0.3c-0.1,0-0.2,0-0.3,0c-1.2,0.1-1.8,0.7-2.1,1l-0.2-0.2
				c-0.5-0.3-1-0.5-1.6-0.5c-0.1,0-0.1,0-0.2,0c-1.2,0.1-1.8,0.5-2.2,0.8l-0.2-0.2c-0.5-0.3-1-0.5-1.7-0.6c-0.1,0-0.1,0-0.2,0
				c-1.1,0-1.7,0.4-2.1,0.7l-0.2-0.2c-0.5-0.4-1.1-0.7-1.6-0.7c-0.1,0-0.3,0-0.4,0c-0.8,0-1.4,0.2-1.9,0.6l-0.2-0.2
				c-0.5-0.4-1-0.7-1.6-0.8c-0.3-0.1-0.5-0.1-0.8-0.1c-0.8,0-1.2,0.2-1.6,0.5l-0.2-0.2c-0.5-0.5-1-0.8-1.5-0.9
				c-0.3-0.1-0.7-0.1-1-0.1c-0.6,0-1,0.2-1.3,0.3l-0.2-0.2c-0.4-0.5-0.9-0.9-1.4-1c-0.5-0.1-0.9-0.2-1.3-0.2c-0.4,0-0.8,0.1-1.1,0.2
				l-0.2-0.2c-0.5-0.6-0.9-0.9-1.4-1.1c-0.5-0.2-1-0.3-1.4-0.3h0c-0.3,0-0.6,0.1-0.9,0.2l-0.2-0.3c-0.4-0.6-0.8-1-1.3-1.2
				c-0.6-0.3-1.1-0.4-1.7-0.4c-0.2,0-0.5,0.1-0.7,0.1l-0.2-0.3c-0.3-0.6-0.7-1-1.2-1.3c-0.6-0.4-1.2-0.5-1.8-0.5
				c-0.2,0-0.3,0-0.5,0.1l-0.1-0.3c-0.3-0.6-0.6-1.1-1.1-1.4c-0.7-0.5-1.3-0.7-1.9-0.7c-0.1,0-0.2,0-0.3,0l-0.1-0.3
				c-0.3-0.7-0.6-1.1-1-1.5c-0.8-0.7-1.6-0.8-2.1-0.8c0,0-0.1,0-0.1,0l-0.1-0.3c-0.2-0.7-0.5-1.2-0.9-1.5c-0.9-0.8-1.6-1-2.1-1h0
				l-0.1-0.3c-0.2-0.7-0.4-1.2-0.8-1.6c-0.8-0.9-1.6-1.1-2.1-1.1l0-0.3c-0.1-0.7-0.3-1.2-0.6-1.6c-0.6-0.7-1.3-1.2-2-1.3l0-0.3
				c-0.1-0.7-0.2-1.3-0.5-1.7c-0.7-1-1.4-1.3-1.9-1.4l0-0.3c0-0.7-0.1-1.2-0.4-1.7c-0.6-1-1.3-1.4-1.8-1.5l0-0.3
				c0.1-0.7,0-1.3-0.3-1.7c-0.5-1-1.2-1.5-1.6-1.6l0-0.3c0.1-0.7,0.1-1.2-0.2-1.8c-0.4-0.9-0.9-1.5-1.5-1.8l0.1-0.3
				c0.2-0.7,0.1-1.2,0-1.8c-0.4-1.1-1-1.7-1.4-1.9l0.1-0.3c0.2-0.6,0.2-1.2,0.1-1.8l-0.1-0.2h7.4v4.8
				C193.8,221.8,194.5,224.3,195.8,226.7 M172.1,214.4c6.7,31.4,34.6,55,68.1,55c33.5,0,61.4-23.6,68.1-55.1l2.8,0
				c-6.8,33-35.9,57.8-70.8,57.8c-34.9,0-64-24.8-70.8-57.7H172.1z M202.5,281.9c0,0-0.8-0.4-0.8-0.5c-2.8-1.5-5.3-3.1-8-4.9
				c-1.4-0.9-2.7-1.9-4.1-3.1c-1.3-1.1-2.8-2.2-4.1-3.4l-0.1,0.4c-0.6,1.4-2,2.3-3.5,1.9c-0.8-0.3-1.6-0.8-2.3-1.2
				c-1-0.7-2-1.4-3-2.1c-0.1-0.1-0.8,1.2-0.8,1.4c0-0.1-1.4-4.3-1.4-4.3l3.9,0.9c-0.3-0.1-1.2,1-1.1,1c0.9,0.7,1.9,1.4,2.9,2
				c0.8,0.5,1.7,1.1,2.6,0.9c0.7-0.1,1.4-0.8,1.3-1.6c-0.1-0.7-1.2-1.4-1.6-1.9c-0.7-0.6-1.2-1-2.1-1.8l-1.7-1.2
				c-0.1-0.1-0.5,0.4-0.6,0.5c-0.1,0.2-0.3,0.5-0.2,0.8c-0.1-0.1-2-4.1-2-4.1l4.3,1.1c-0.4,0.2-0.6,0.4-0.9,0.8
				c0.8,0.6,1.5,1.2,2.5,2c1.2,0.8,3.4,2.9,4.7,1.1c1-1.4-1.4-3.1-2.3-3.9c-0.7-0.6-1.2-1-1.9-1.5l-0.5,0.5
				c-0.1,0.2-0.4,0.9-0.4,1.1l-1.8-4.4l4.6,1c-0.1,0-0.5,0.2-0.6,0.3c-0.3,0.2-0.5,0.4-0.8,0.6c0.1-0.1,3.5,3,3.7,3.2
				c0.8,0.8,1.4,1.6,1.4,2.7c0,0.6-0.3,1.1-0.7,1.5c-0.1,0.1-0.7,0.7-0.7,0.7c0.3,0.3,0.6,0.6,0.9,0.9c0.8,0.7,1.6,1.4,2.4,2
				c2.9,2.5,5.9,4.3,8.9,6.3c0.3,0.2,3.4,2,4.5,2.6L202.5,281.9z M226.8,282.1c-0.3,1.3-0.5,2.2-0.6,2.8l-0.1,0.4
				c-0.1,0.4,0,0.7,0.2,0.9l0,0l0,0c-1.8,1.2-2.7,1.8-2.7,1.8c-2.2-0.4-3.4-0.6-3.7-0.7l-0.9,0.5l-0.7,3.4l2.6,0.5
				c0.5,0.1,1.1,0,1.7-0.3c0.4-0.2,0.7-0.4,0.9-0.6c0.2-0.2,0.4-0.3,0.4-0.3c0.2,0.2,0.6,0.6,1.3,1.2c0,0,0,0,0.1,0.1
				c-1.6,1.9-2.4,3-2.5,3.1l-6.3-1.3c0,0-0.1-0.1-0.3-0.3c-0.1-0.2-0.6-0.9-1.3-1.9v0c0.4-0.3,0.7-0.7,0.9-1
				c0.1-0.1,0.1-0.2,0.1-0.3l0.6-2.6c0.1-0.5,0-1.1-0.3-1.6l0,0c0.1-0.1,1-0.5,2.8-1.3l3.7,0.7l0.9-0.6l0.4-2
				c0.1-0.3,0.2-0.8,0.3-1.4c-0.8-0.2-1.4-0.3-1.9-0.4l-1.1-0.2c-0.1,0-0.3-0.1-0.5-0.1l-0.2,0.9c0,0-1,0.2-2.9,0.6l0,0l0.2-0.9
				c0.2-0.8,0.1-1.5-0.1-1.8c0,0,0-0.1-0.1-0.2c0,0,0.9-0.5,2.7-1.3c0,0,0.1,0,0.1,0l5.2,1.1l2,2.4
				C227.2,281.3,226.9,281.7,226.8,282.1 M238.3,296.4l-5.4-0.2c0,0-0.3-0.2-0.7-0.6c-0.7-0.5-1.2-1-1.6-1.4
				c0.4-0.4,0.6-0.8,0.6-1.1c0-0.1,0-0.1,0-0.1c0-0.9,0.1-1.5,0.1-2l0.3-6.2c0-0.5,0-1.2,0.1-2.1c0-0.3-0.1-0.5-0.3-0.9
				c-0.1-0.1-0.2-0.3-0.3-0.4c0,0,0.8-0.6,2.5-1.8c0,0,0,0,0.1,0l5.4,0.2c0,0,0.3,0.2,0.7,0.6c0.7,0.6,1.2,1,1.6,1.4
				c-0.4,0.4-0.6,0.8-0.6,1.2c-0.1,1.3-0.1,2.3-0.1,2.9l-0.3,6.7c0,0.8,0.1,1.4,0.5,1.8v0C240.8,294.6,240,295.2,238.3,296.4
				C238.3,296.4,238.3,296.4,238.3,296.4 M266.5,163.8c-1-1.7-1.6-3.4-2.1-5l-5.8-1.9c-5.5-1.8-11.4-2.6-18.1-2.6l-0.5,0
				c-7.2,0-12.9,0.8-18.1,2.4l-5.8,1.9c-0.5,1.6-1.1,3.3-2.1,5c-1.1,1.8-2.4,3.5-4.2,5.5c-2.7,2.9-6,5.3-10.3,7.6v41.8
				c0.5,2.2,1.1,3.8,1.9,5.3l0,0.1c0.8,1.6,1.6,3,2.5,4.2c0.8,1.2,1.9,2.4,3.1,3.6c4.2,4.2,9.2,7.1,15.8,10.3c1.3,0.6,2.3,0.8,5,0.8
				h0.2c0.3,0,0.6,0,1,0c0.4,0,0.7,0,1.1,0c2.2,0,4.8,0.3,7.7,2.2c1.2,0.8,1.9,1.7,2.5,2.4c0.1,0,0.2,0,0.3,0c0.3-0.4,0.6-0.8,1-1.2
				c3.4-3.3,7.3-3.3,9.4-3.3h0.8c2.6,0,4.4-0.1,6-0.8c6.6-3.3,11.6-6.2,15.8-10.3c1.2-1.2,2.2-2.4,3.1-3.6c0.8-1.2,1.7-2.6,2.4-4.2
				l0-0.1c0.8-1.5,1.4-3.1,1.9-5.3v-41.8c-4.3-2.2-7.6-4.7-10.3-7.6C268.9,167.4,267.6,165.6,266.5,163.8 M233.4,227.1
				c0,0-1-0.7-1-0.7c-0.5,0.6-0.5,1.6-1.3,1.9c-1,0.5-2.4,0.6-3.5,0.2c-0.4-0.1-0.7-0.2-1.1-0.4c0.5-0.7,0.9-1.5,1.4-2.2
				c0.7-1.3,1.7-2.6,2-4c0.3-1.5,0.6-2.6,0.6-4.1c0.9,0,1.9-0.1,2.8-0.3c0.8-0.1,1.6-0.4,2.3-0.6c0,1.1,0.1,1.5,0.1,2.3
				c0.1,1.8,0.2,3.7,1,5.3c0.6,1.3,1.6,2.1,2.6,3.1C237.3,228.8,235.4,228.6,233.4,227.1 M241.4,211.4c-1.3,1.6-2.9,2.9-4.8,3.7
				c-0.3,0.1-0.7,0.3-1,0.4v0c-0.4,0.1-0.7,0.2-1.1,0.4c-0.1,0-0.1,0-0.2,0.1c-0.4,0.1-0.8,0.2-1.2,0.3c-0.5,0.1-1,0.1-1.4,0.2
				c-0.2,0-0.4,0-0.6,0c-0.2,0-0.4,0-0.6,0v0c-1.2,0-2.5,0-3.7-0.2c-0.3,0-2.3-0.7-2.5-0.6c0,0-1.4,1.4-1.4,1.4
				c-1,1-3.4,1.3-4.5,0.5c-0.2-0.1-0.6-0.4-1.4-1c0,0,1.5-0.6,1.5-0.6c0.9-0.4,2.2-1.1,2.5-2.1c0.4-1.4,0.2-2.9,0.2-4.3
				c0.1-2.1,0-4.2,0-6.3c0-2.4,0-4.8,0-7.2c0-2,0-4.1,0-6.1c0-1,0-2,0-3c0,0,0,0,0-0.1c0-0.9-0.1-1.7-0.1-2.6
				c-0.1-2.1,0.1-5.8-2.6-6.2c-0.7-0.1-1.4-0.1-2.2-0.2c0,0,0.8-1.2,0.9-1.2c0.5-0.7,1.7-1.1,2.5-1.1c0.3,0,2.2-0.1,3.6,0.9l0.6,0.6
				c0,0,1.5-1.2,1.7-1.3c0.7-0.4,1.4-0.7,2.2-0.9c2.3-0.5,5,0.2,7.3,0.7c5.9,1.3,8.5,6.5,8.7,12.1c0.2,4.5,0.1,8.2,0,12.7
				c-1.1-1.3-2.9-3.4-4.2-5c0-0.4,0-0.2,0-0.6c-0.1-4.4,0.6-11.4-4-13.9c-1.6-0.9-3.9-1.2-5.7-1.2c-0.6,0-2,0.1-2.4,0.4l-1.4,1v14.2
				c0,0,0.3,15.7,0.3,15.7c0,0.3,2.9,0.5,4.3,0.5c0,0,0,0,0,0c0.1,0,0.2,0,0.3,0h0h0.3c0.4,0,0.8-0.1,1.2-0.1c0,0,0,0,0,0
				c0.4-0.1,0.7-0.1,1-0.2l0,0c0.7-0.2,1.3-0.5,1.9-0.8c1.2-0.8,2.1-1.9,2.8-3.2c0.2-0.4,0.2-0.2,0.3-0.7c0.1,0.2,0.3,0.3,0.4,0.5
				l2.9,3c0.1,0.1,0.2,0.2,0.3,0.2C242,210.7,241.9,210.8,241.4,211.4 M260.6,222.5c0.3,1.4,0.8,2.1,1.5,3.4
				c0.4,0.7,1.5,1.5,1.9,2.2c-0.4,0.1-0.7,0.2-1.1,0.4c-1.1,0.4-2.5,0.2-3.5-0.2c-0.8-0.3-0.5-1.3-1-1.9c0,0-1,0.7-1,0.7
				c-2,1.5-3.9,1.7-6,0.5c1-1,2-1.8,2.6-3.1c0.8-1.6,0.9-3.6,1-5.3c0.2-3.8,0.2-12.5,0.2-16.4c0-0.5,0.1-1.7,0.1-2.2
				c-1,1-2.1,2.3-2.9,3.1l-4.1,4.3c-0.2,0.2-2.5,2.5-2.9,2.9c-0.3-0.3-0.7-0.6-1.1-0.9c-0.4-0.4-0.8-0.8-1.3-1.2l-3.7-3.9
				c-0.3-0.4-0.6-0.7-1-1.1c-0.7-0.7-1.4-1.4-2.7-2.9c0,0.5,0.1,1.4,0.1,1.9v0.7v0.2v0.6c0,0.5,0,1.1,0,1.7c0,0.6,0,1.3,0,2v0.7
				c-1.1,0.8-2.4,1.3-4.2,1.4h-0.1c-0.2,0-0.5,0-0.8,0c0-0.8,0-1,0-1.8c0-4.6,0-9.7,0-11.5v-0.3v-0.3v0V196c-0.2-2.2,0-5-1.9-6.5
				c0,0-1.8-1.4-1.8-1.4c0.2,0,0.5,0,0.7,0c1.7-0.1,2.5-0.5,3.9,0.5c0,0,1.2,0.9,1.2,0.9c1-0.7,1.9-1.4,3.2-1.5c0.6,0,1.1,0,1.7,0
				c-0.3,0.4-0.9,0.7-1.1,1.2c-0.3,0.7-0.2,3.9,0.9,5.1c0,0.1,1.9,2.2,3.6,4.2c0.3,0.4,0.7,0.8,1,1.2c0.1,0.1,0.1,0.2,0.2,0.2
				c0.3,0.3,0.6,0.7,0.8,0.9c0.1,0.1,0.2,0.2,0.3,0.3c0.1,0.1,0.2,0.2,0.3,0.3c0.1,0.1,0.2,0.2,0.2,0.3c0,0,0,0,0,0l0.3,0.3l1.3,1.4
				l2-2c0,0,6.4-7.6,6.5-7.7c0.9-1.6,0.8-3.9,0.5-4.6c-0.2-0.4-0.8-0.8-1.1-1.2c0.6,0,1.1,0,1.7,0c1.3,0.1,2.2,0.7,3.2,1.5
				c0,0,0.4-0.8,0.4-0.9c1.4-1,3.4-1,5-0.9c0.2,0,0.5,0,0.7,0.1c0,0-1.7,1.4-1.7,1.4c-1.9,1.5-2.3,4.3-2.5,6.5v20.8
				C260,218.2,260.2,220.9,260.6,222.5"></path>
				</g>
			</g>
		</g>
		</svg>